<?xml version="1.0" encoding="UTF-8"?>
<!DOCTYPE svg PUBLIC "-//W3C//DTD SVG 1.1//EN" "http://www.w3.org/Graphics/SVG/1.1/DTD/svg11.dtd">
<svg xmlns="http://www.w3.org/2000/svg" version="1.1" width="512px" height="512px" style="shape-rendering:geometricPrecision; text-rendering:geometricPrecision; image-rendering:optimizeQuality; fill-rule:evenodd; clip-rule:evenodd" xmlns:xlink="http://www.w3.org/1999/xlink">
<g><path style="opacity:0.963" fill="#231f22" d="M 232.5,-0.5 C 247.833,-0.5 263.167,-0.5 278.5,-0.5C 378.271,12.4486 449.438,64.4486 492,155.5C 502.136,180.379 508.636,206.046 511.5,232.5C 511.5,247.833 511.5,263.167 511.5,278.5C 498.551,378.271 446.551,449.438 355.5,492C 330.623,502.135 304.957,508.635 278.5,511.5C 263.167,511.5 247.833,511.5 232.5,511.5C 206.046,508.636 180.379,502.136 155.5,492C 154.62,490.644 154.286,489.144 154.5,487.5C 156.068,486.527 157.735,486.36 159.5,487C 222.65,512.543 285.984,512.876 349.5,488C 428.419,453.743 478.586,394.91 500,311.5C 518.822,213.3 491.322,130.8 417.5,64C 349.304,9.2912 272.638,-7.37547 187.5,14C 105.898,39.2683 49.7311,91.7683 19,171.5C -7.40627,253.927 3.59373,330.927 52,402.5C 70.6683,427.838 93.1683,449.004 119.5,466C 120.38,467.356 120.714,468.856 120.5,470.5C 119.262,471.412 117.928,471.579 116.5,471C 48.0727,425.022 9.07274,360.855 -0.5,278.5C -0.5,263.167 -0.5,247.833 -0.5,232.5C 12.4486,132.729 64.4486,61.5622 155.5,19C 180.379,8.86392 206.046,2.36392 232.5,-0.5 Z"/></g>
<g><path style="opacity:1" fill="#256cd3" d="M 154.5,487.5 C 142.615,482.891 131.282,477.224 120.5,470.5C 120.714,468.856 120.38,467.356 119.5,466C 93.1683,449.004 70.6683,427.838 52,402.5C 3.59373,330.927 -7.40627,253.927 19,171.5C 49.7311,91.7683 105.898,39.2683 187.5,14C 272.638,-7.37547 349.304,9.2912 417.5,64C 491.322,130.8 518.822,213.3 500,311.5C 478.586,394.91 428.419,453.743 349.5,488C 285.984,512.876 222.65,512.543 159.5,487C 157.735,486.36 156.068,486.527 154.5,487.5 Z"/></g>
<g><path style="opacity:1" fill="#242126" d="M 250.5,12.5 C 265.664,11.8217 272.164,18.8217 270,33.5C 264.605,43.4089 256.772,45.9089 246.5,41C 236.275,29.8532 237.608,20.3532 250.5,12.5 Z"/></g>
<g><path style="opacity:1" fill="#1c509c" d="M 252.5,17.5 C 265.23,18.7099 268.564,24.8766 262.5,36C 255.745,40.1835 250.245,39.0168 246,32.5C 245.333,29.5 245.333,26.5 246,23.5C 248.063,21.2659 250.229,19.2659 252.5,17.5 Z"/></g>
<g><path style="opacity:1" fill="#232125" d="M 99.5,126.5 C 100.473,128.068 100.64,129.735 100,131.5C 54.7091,191.257 44.7091,256.59 70,327.5C 91.3521,380.186 128.185,417.686 180.5,440C 249.04,465.058 313.373,457.058 373.5,416C 437.55,364.679 463.383,298.179 451,216.5C 435.226,148.738 395.726,100.571 332.5,72C 272.602,48.3753 214.269,51.7086 157.5,82C 147.974,87.5953 138.974,93.9286 130.5,101C 127.51,101.847 126.176,100.68 126.5,97.5C 158.574,70.8114 195.574,55.6447 237.5,52C 324.424,48.3699 390.257,83.5365 435,157.5C 463.268,212.05 467.268,268.383 447,326.5C 414.74,404.57 356.574,448.736 272.5,459C 199.018,462.856 139.185,436.356 93,379.5C 52.8894,323.511 41.8894,262.178 60,195.5C 67.8358,170.489 79.8358,147.822 96,127.5C 97.0113,126.663 98.1779,126.33 99.5,126.5 Z"/></g>
<g><path style="opacity:1" fill="#1c519f" d="M 99.5,126.5 C 107.739,118.598 116.073,110.598 124.5,102.5C 125.17,100.709 125.837,99.0419 126.5,97.5C 126.176,100.68 127.51,101.847 130.5,101C 138.974,93.9286 147.974,87.5953 157.5,82C 214.269,51.7086 272.602,48.3753 332.5,72C 395.726,100.571 435.226,148.738 451,216.5C 463.383,298.179 437.55,364.679 373.5,416C 313.373,457.058 249.04,465.058 180.5,440C 128.185,417.686 91.3521,380.186 70,327.5C 44.7091,256.59 54.7091,191.257 100,131.5C 100.64,129.735 100.473,128.068 99.5,126.5 Z"/></g>
<g><path style="opacity:1" fill="#252225" d="M 251.5,114.5 C 258.314,113.706 263.147,116.373 266,122.5C 266.494,133.334 261.327,137.834 250.5,136C 245.206,132.565 243.373,127.732 245,121.5C 246.694,118.642 248.861,116.309 251.5,114.5 Z"/></g>
<g><path style="opacity:1" fill="#e8e8e8" d="M 253.5,119.5 C 259.356,119.854 261.523,122.854 260,128.5C 256.667,132.5 253.333,132.5 250,128.5C 248.98,124.553 250.147,121.553 253.5,119.5 Z"/></g>
<g><path style="opacity:1" fill="#242124" d="M 323.5,122.5 C 329.46,121.626 333.627,123.959 336,129.5C 336.137,138.026 331.97,141.526 323.5,140C 315.556,134.131 315.556,128.297 323.5,122.5 Z"/></g>
<g><path style="opacity:1" fill="#252225" d="M 180.5,122.5 C 190.951,122.77 194.451,127.77 191,137.5C 184.884,143.138 179.551,142.471 175,135.5C 173.571,129.7 175.404,125.367 180.5,122.5 Z"/></g>
<g><path style="opacity:1" fill="#e3e2e2" d="M 182.5,127.5 C 187.668,128.339 188.668,130.839 185.5,135C 181,135.833 179.167,134 180,129.5C 180.995,128.934 181.828,128.267 182.5,127.5 Z"/></g>
<g><path style="opacity:1" fill="#dfdfdf" d="M 324.5,127.5 C 330.488,127.664 331.821,130.164 328.5,135C 322.403,135.147 321.07,132.647 324.5,127.5 Z"/></g>
<g><path style="opacity:1" fill="#262326" d="M 198.5,151.5 C 211.43,151.089 216.597,157.089 214,169.5C 210.235,175.76 204.735,177.927 197.5,176C 189.188,171.358 187.354,164.858 192,156.5C 193.965,154.45 196.132,152.783 198.5,151.5 Z"/></g>
<g><path style="opacity:1" fill="#252124" d="M 303.5,151.5 C 316.261,150.274 321.761,155.941 320,168.5C 316.858,175.939 311.358,178.439 303.5,176C 296.776,172.517 294.276,167.017 296,159.5C 297.69,155.979 300.19,153.312 303.5,151.5 Z"/></g>
<g><path style="opacity:1" fill="#ededed" d="M 199.5,156.5 C 209.11,156.936 211.776,161.436 207.5,170C 198.242,173.295 194.409,170.128 196,160.5C 197.376,159.295 198.542,157.962 199.5,156.5 Z"/></g>
<g><path style="opacity:1" fill="#ececec" d="M 305.5,156.5 C 312.657,156.155 315.824,159.488 315,166.5C 312.928,171.143 309.428,172.643 304.5,171C 298.881,165.595 299.215,160.762 305.5,156.5 Z"/></g>
<g><path style="opacity:1" fill="#252225" d="M 251.5,159.5 C 266.406,159.895 271.906,167.229 268,181.5C 263.435,187.802 257.268,189.969 249.5,188C 236.914,177.532 237.58,168.032 251.5,159.5 Z"/></g>
<g><path style="opacity:1" fill="#ededed" d="M 252.5,164.5 C 262.928,164.751 266.428,169.751 263,179.5C 257.283,185.111 251.95,184.778 247,178.5C 245.025,172.177 246.858,167.51 252.5,164.5 Z"/></g>
<g><path style="opacity:1" fill="#252224" d="M 364.5,179.5 C 375.221,179.05 379.721,184.05 378,194.5C 375.182,200.108 370.682,202.275 364.5,201C 358.092,197.677 355.925,192.511 358,185.5C 359.494,182.686 361.66,180.686 364.5,179.5 Z"/></g>
<g><path style="opacity:1" fill="#262326" d="M 139.5,179.5 C 152.547,180.262 156.381,186.595 151,198.5C 142.721,203.767 136.387,202.1 132,193.5C 131.245,190.697 131.578,188.03 133,185.5C 135.063,183.266 137.229,181.266 139.5,179.5 Z"/></g>
<g><path style="opacity:1" fill="#ededed" d="M 139.5,185.5 C 145.83,184.666 148.663,187.333 148,193.5C 145.162,197.035 141.995,197.368 138.5,194.5C 136.992,191.231 137.325,188.231 139.5,185.5 Z"/></g>
<g><path style="opacity:1" fill="#e8e8e8" d="M 365.5,184.5 C 372.797,184.617 374.964,187.95 372,194.5C 365.035,197.505 362.035,195.172 363,187.5C 364.045,186.627 364.878,185.627 365.5,184.5 Z"/></g>
<g><path style="opacity:1" fill="#262325" d="M 273.5,191.5 C 293.858,190.689 303.024,200.355 301,220.5C 296.387,232.725 287.554,238.225 274.5,237C 260.842,232.335 255.009,222.835 257,208.5C 260.019,200.316 265.519,194.649 273.5,191.5 Z"/></g>
<g><path style="opacity:1" fill="#272428" d="M 226.5,191.5 C 245.694,191.193 254.861,200.526 254,219.5C 249.625,232.775 240.459,238.608 226.5,237C 213.381,232.535 207.547,223.368 209,209.5C 211.683,200.318 217.517,194.318 226.5,191.5 Z"/></g>
<g><path style="opacity:1" fill="#f1f1f1" d="M 225.5,197.5 C 244.766,196.416 251.933,205.082 247,223.5C 240.01,231.911 231.51,233.744 221.5,229C 214.099,221.968 212.599,213.801 217,204.5C 219.441,201.546 222.275,199.213 225.5,197.5 Z"/></g>
<g><path style="opacity:1" fill="#f0f0f0" d="M 275.5,196.5 C 294.667,198.17 300.5,207.837 293,225.5C 286.52,231.583 279.02,233.083 270.5,230C 263.222,225.097 260.389,218.264 262,209.5C 264.442,202.888 268.942,198.555 275.5,196.5 Z"/></g>
<g><path style="opacity:1" fill="#262225" d="M 180.5,200.5 C 195.351,200.174 201.184,207.174 198,221.5C 192.5,229.664 185.333,231.498 176.5,227C 167.495,216.533 168.828,207.699 180.5,200.5 Z"/></g>
<g><path style="opacity:1" fill="#272427" d="M 320.5,200.5 C 333.969,199.14 340.469,205.14 340,218.5C 335.218,228.816 327.718,231.649 317.5,227C 310.989,220.749 309.823,213.582 314,205.5C 315.965,203.45 318.132,201.783 320.5,200.5 Z"/></g>
<g><path style="opacity:1" fill="#efefef" d="M 322.5,205.5 C 332.7,204.89 336.533,209.557 334,219.5C 330.604,223.203 326.437,224.369 321.5,223C 314.62,216.772 314.954,210.939 322.5,205.5 Z"/></g>
<g><path style="opacity:1" fill="#ececec" d="M 182.5,205.5 C 191.66,206.139 195.16,210.806 193,219.5C 186.306,226.66 180.639,225.993 176,217.5C 175.269,211.965 177.435,207.965 182.5,205.5 Z"/></g>
<g><path style="opacity:1" fill="#262325" d="M 203.5,232.5 C 223.177,233.007 232.01,243.007 230,262.5C 222.452,277.572 210.952,281.738 195.5,275C 184.848,265.88 182.682,255.047 189,242.5C 192.977,237.774 197.811,234.441 203.5,232.5 Z"/></g>
<g><path style="opacity:1" fill="#252225" d="M 297.5,232.5 C 310.354,231.51 319.52,236.843 325,248.5C 327.002,268.161 318.169,277.994 298.5,278C 281.199,271.316 276.366,259.482 284,242.5C 287.802,238.037 292.302,234.703 297.5,232.5 Z"/></g>
<g><path style="opacity:1" fill="#f0f0f0" d="M 201.5,238.5 C 219.693,236.852 227.193,244.852 224,262.5C 219.133,271.849 211.633,275.016 201.5,272C 190.262,265.278 187.762,256.112 194,244.5C 196.478,242.361 198.978,240.361 201.5,238.5 Z"/></g>
<g><path style="opacity:1" fill="#f0f0f0" d="M 299.5,237.5 C 314.69,237.852 321.524,245.518 320,260.5C 314.842,271.782 306.342,275.282 294.5,271C 284.799,263.879 282.965,255.046 289,244.5C 291.998,241.262 295.498,238.929 299.5,237.5 Z"/></g>
<g><path style="opacity:1" fill="#242126" d="M 24.5,239.5 C 41.0632,240.639 46.5632,248.972 41,264.5C 32.9244,273.241 24.5911,273.575 16,265.5C 9.41271,253.687 12.246,245.021 24.5,239.5 Z"/></g>
<g><path style="opacity:1" fill="#242227" d="M 479.5,239.5 C 490.56,239.072 496.893,244.239 498.5,255C 496.581,267.958 489.248,272.958 476.5,270C 467.427,264.109 465.26,256.276 470,246.5C 472.529,243.115 475.696,240.782 479.5,239.5 Z"/></g>
<g><path style="opacity:1" fill="#252124" d="M 356.5,242.5 C 371.499,242.648 376.332,249.648 371,263.5C 366.483,267.242 361.316,268.409 355.5,267C 349.333,263.155 347.166,257.655 349,250.5C 351.028,247.308 353.528,244.641 356.5,242.5 Z"/></g>
<g><path style="opacity:1" fill="#242124" d="M 144.5,243.5 C 159.192,242.019 164.692,248.352 161,262.5C 153.591,270.432 146.258,270.432 139,262.5C 135.768,254.573 137.601,248.24 144.5,243.5 Z"/></g>
<g><path style="opacity:1" fill="#1c509b" d="M 23.5,245.5 C 33.9922,243.834 38.8256,248.167 38,258.5C 35.2701,265.053 30.4368,267.22 23.5,265C 15.5548,258.503 15.5548,252.003 23.5,245.5 Z"/></g>
<g><path style="opacity:1" fill="#1c509c" d="M 478.5,245.5 C 485.128,244.231 489.961,246.564 493,252.5C 493.183,262.31 488.349,266.477 478.5,265C 470.53,258.423 470.53,251.923 478.5,245.5 Z"/></g>
<g><path style="opacity:1" fill="#262326" d="M 394.5,246.5 C 404.158,244.993 408.325,248.993 407,258.5C 404.367,263.732 400.201,265.565 394.5,264C 387.842,257.997 387.842,252.164 394.5,246.5 Z"/></g>
<g><path style="opacity:1" fill="#242124" d="M 109.5,246.5 C 118.006,246.17 121.839,250.17 121,258.5C 118.232,264.172 113.732,266.006 107.5,264C 101.65,257.305 102.317,251.471 109.5,246.5 Z"/></g>
<g><path style="opacity:1" fill="#ebebeb" d="M 358.5,247.5 C 366.149,247.314 369.315,250.981 368,258.5C 363.333,263.833 358.667,263.833 354,258.5C 352.776,253.626 354.276,249.959 358.5,247.5 Z"/></g>
<g><path style="opacity:1" fill="#eaeaea" d="M 146.5,248.5 C 154.161,247.663 157.661,250.996 157,258.5C 153.455,264.209 149.121,264.875 144,260.5C 141.511,255.757 142.345,251.757 146.5,248.5 Z"/></g>
<g><path style="opacity:1" fill="#e7e6e6" d="M 396.5,251.5 C 401.486,251.305 403.152,253.472 401.5,258C 394.561,259.574 392.894,257.407 396.5,251.5 Z"/></g>
<g><path style="opacity:1" fill="#e2e1e1" d="M 110.5,251.5 C 116.501,251.741 117.834,254.241 114.5,259C 108.403,259.147 107.07,256.647 110.5,251.5 Z"/></g>
<g><path style="opacity:1" fill="#262325" d="M 226.5,273.5 C 245.149,272.983 254.316,281.983 254,300.5C 249.856,314.827 240.356,320.993 225.5,319C 209.826,311.316 205.66,299.482 213,283.5C 216.802,279.037 221.302,275.703 226.5,273.5 Z"/></g>
<g><path style="opacity:1" fill="#272427" d="M 275.5,273.5 C 294.169,274.331 302.669,283.998 301,302.5C 294.925,317.785 284.092,322.618 268.5,317C 255.55,307.842 253.05,296.342 261,282.5C 265.053,278.066 269.886,275.066 275.5,273.5 Z"/></g>
<g><path style="opacity:1" fill="#f0f0f0" d="M 225.5,279.5 C 236.457,277.561 244.29,281.561 249,291.5C 250.342,307.158 243.175,314.658 227.5,314C 213.983,307.926 210.817,298.426 218,285.5C 220.478,283.361 222.978,281.361 225.5,279.5 Z"/></g>
<g><path style="opacity:1" fill="#f0f0f0" d="M 272.5,279.5 C 292.573,278.395 299.739,287.395 294,306.5C 288.245,313.037 281.078,315.203 272.5,313C 262.217,307.047 259.383,298.547 264,287.5C 266.579,284.479 269.413,281.812 272.5,279.5 Z"/></g>
<g><path style="opacity:1" fill="#252225" d="M 321.5,281.5 C 337.757,281.578 343.257,289.245 338,304.5C 332.053,310.848 325.219,312.014 317.5,308C 308.495,297.533 309.828,288.699 321.5,281.5 Z"/></g>
<g><path style="opacity:1" fill="#252225" d="M 181.5,281.5 C 196.395,281.886 201.895,289.219 198,303.5C 193.435,309.802 187.268,311.969 179.5,310C 169.833,303.816 168.166,295.982 174.5,286.5C 176.724,284.566 179.058,282.899 181.5,281.5 Z"/></g>
<g><path style="opacity:1" fill="#ededed" d="M 180.5,287.5 C 189.947,286.119 194.447,290.119 194,299.5C 191.367,304.732 187.201,306.565 181.5,305C 173.866,299.666 173.533,293.833 180.5,287.5 Z"/></g>
<g><path style="opacity:1" fill="#ebebeb" d="M 323.5,286.5 C 333.634,287.12 336.968,292.12 333.5,301.5C 326.636,307.551 321.136,306.551 317,298.5C 316.312,292.871 318.479,288.871 323.5,286.5 Z"/></g>
<g><path style="opacity:1" fill="#252225" d="M 363.5,309.5 C 375.043,308.208 379.876,313.208 378,324.5C 375.182,330.108 370.682,332.275 364.5,331C 358.092,327.677 355.925,322.511 358,315.5C 359.36,312.977 361.193,310.977 363.5,309.5 Z"/></g>
<g><path style="opacity:1" fill="#242225" d="M 139.5,309.5 C 149.182,309.351 154.015,314.017 154,323.5C 149.442,331.944 143.109,333.611 135,328.5C 130.598,320.644 132.098,314.31 139.5,309.5 Z"/></g>
<g><path style="opacity:1" fill="#e7e7e7" d="M 141.5,314.5 C 147.356,314.854 149.523,317.854 148,323.5C 144.667,327.5 141.333,327.5 138,323.5C 136.665,319.392 137.832,316.392 141.5,314.5 Z"/></g>
<g><path style="opacity:1" fill="#ececec" d="M 365.5,314.5 C 373.148,314.768 375.148,318.268 371.5,325C 366.308,326.872 363.308,325.205 362.5,320C 362.863,317.808 363.863,315.974 365.5,314.5 Z"/></g>
<g><path style="opacity:1" fill="#252225" d="M 249.5,322.5 C 267.215,322.356 272.715,330.356 266,346.5C 257.972,353.452 250.305,353.119 243,345.5C 238.02,335.608 240.187,327.942 249.5,322.5 Z"/></g>
<g><path style="opacity:1" fill="#ececec" d="M 251.5,327.5 C 261.7,326.89 265.533,331.557 263,341.5C 256.306,348.66 250.639,347.993 246,339.5C 244.873,334.089 246.707,330.089 251.5,327.5 Z"/></g>
<g><path style="opacity:1" fill="#252124" d="M 198.5,334.5 C 212.002,334.161 217.169,340.494 214,353.5C 208.378,360.099 201.878,361.099 194.5,356.5C 189.788,350.915 189.288,344.915 193,338.5C 194.812,337.023 196.645,335.69 198.5,334.5 Z"/></g>
<g><path style="opacity:1" fill="#252326" d="M 305.5,333.5 C 319.853,335.214 324.019,342.547 318,355.5C 308.068,362.438 300.735,360.438 296,349.5C 294.786,344.657 295.953,340.49 299.5,337C 301.727,336.059 303.727,334.892 305.5,333.5 Z"/></g>
<g><path style="opacity:1" fill="#ececec" d="M 199.5,339.5 C 205.629,338.555 209.296,341.055 210.5,347C 209.933,351.734 207.266,354.234 202.5,354.5C 197.086,353.348 194.919,350.015 196,344.5C 196.997,342.677 198.164,341.01 199.5,339.5 Z"/></g>
<g><path style="opacity:1" fill="#eaeaea" d="M 304.5,339.5 C 313.33,338.162 316.83,341.829 315,350.5C 308.186,356.701 303.353,355.368 300.5,346.5C 301.071,343.687 302.404,341.354 304.5,339.5 Z"/></g>
<g><path style="opacity:1" fill="#242124" d="M 180.5,370.5 C 189.495,369.663 193.661,373.663 193,382.5C 188.825,389.275 183.492,390.275 177,385.5C 175.115,383.086 174.448,380.419 175,377.5C 176.371,374.734 178.204,372.401 180.5,370.5 Z"/></g>
<g><path style="opacity:1" fill="#252225" d="M 324.5,369.5 C 332.87,370.027 336.703,374.361 336,382.5C 333.367,387.732 329.201,389.565 323.5,388C 318.845,385.103 317.345,380.937 319,375.5C 320.36,372.977 322.193,370.977 324.5,369.5 Z"/></g>
<g><path style="opacity:1" fill="#252225" d="M 250.5,374.5 C 261.99,373.156 266.824,378.156 265,389.5C 260.672,396.696 254.838,398.196 247.5,394C 242.762,386.498 243.762,379.998 250.5,374.5 Z"/></g>
<g><path style="opacity:1" fill="#e1e1e1" d="M 325.5,375.5 C 330.486,375.305 332.152,377.472 330.5,382C 328.105,384.145 325.938,383.978 324,381.5C 323.252,379.16 323.752,377.16 325.5,375.5 Z"/></g>
<g><path style="opacity:1" fill="#e1e0e0" d="M 182.5,375.5 C 188.488,375.664 189.821,378.164 186.5,383C 180.403,383.147 179.07,380.647 182.5,375.5 Z"/></g>
<g><path style="opacity:1" fill="#e8e7e7" d="M 252.5,379.5 C 258.873,379.368 261.373,382.368 260,388.5C 256.582,392.367 253.249,392.367 250,388.5C 248.927,384.9 249.76,381.9 252.5,379.5 Z"/></g>
<g><path style="opacity:1" fill="#242227" d="M 250.5,467.5 C 263.854,466.364 270.687,472.364 271,485.5C 267.095,496.369 259.595,500.203 248.5,497C 236.042,486.254 236.709,476.42 250.5,467.5 Z"/></g>
<g><path style="opacity:1" fill="#1c509c" d="M 251.5,472.5 C 262.042,471.539 266.542,476.206 265,486.5C 258.667,495.833 252.333,495.833 246,486.5C 244.268,480.314 246.101,475.647 251.5,472.5 Z"/></g>
</svg>
