<?xml version="1.0" encoding="UTF-8"?>
<!DOCTYPE svg PUBLIC "-//W3C//DTD SVG 1.1//EN" "http://www.w3.org/Graphics/SVG/1.1/DTD/svg11.dtd">
<svg xmlns="http://www.w3.org/2000/svg" version="1.1" width="512px" height="512px" style="shape-rendering:geometricPrecision; text-rendering:geometricPrecision; image-rendering:optimizeQuality; fill-rule:evenodd; clip-rule:evenodd" xmlns:xlink="http://www.w3.org/1999/xlink">
<g><path style="opacity:0.997" fill="#ff641a" d="M 150.5,-0.5 C 151.167,-0.5 151.833,-0.5 152.5,-0.5C 214.833,50.1667 277.167,100.833 339.5,151.5C 226.167,151.5 112.833,151.5 -0.5,151.5C -0.5,131.5 -0.5,111.5 -0.5,91.5C 49.8333,91.5 100.167,91.5 150.5,91.5C 150.5,60.8333 150.5,30.1667 150.5,-0.5 Z"/></g>
<g><path style="opacity:0.992" fill="#75e1f8" d="M 511.5,301.5 C 511.5,321.5 511.5,341.5 511.5,361.5C 398.332,361.167 285.332,361.5 172.5,362.5C 171.761,362.631 171.094,362.464 170.5,362C 259.045,290.454 347.878,219.287 437,148.5C 443.409,156.32 449.575,164.32 455.5,172.5C 424.17,198.326 392.67,223.993 361,249.5C 360.5,266.83 360.333,284.163 360.5,301.5C 410.833,301.5 461.167,301.5 511.5,301.5 Z"/></g>
<g><path style="opacity:1" fill="#f03800" d="M -0.5,151.5 C 112.833,151.5 226.167,151.5 339.5,151.5C 252.521,221.636 165.355,291.636 78,361.5C 71.3106,353.645 64.8106,345.645 58.5,337.5C 88.8307,312.674 119.331,288.007 150,263.5C 150.5,246.17 150.667,228.837 150.5,211.5C 100.167,211.5 49.8333,211.5 -0.5,211.5C -0.5,191.5 -0.5,171.5 -0.5,151.5 Z"/></g>
<g><path style="opacity:1" fill="#4bb9ec" d="M 511.5,361.5 C 511.5,381.5 511.5,401.5 511.5,421.5C 461.167,421.5 410.833,421.5 360.5,421.5C 360.5,451.5 360.5,481.5 360.5,511.5C 359.833,511.5 359.167,511.5 358.5,511.5C 296.5,461.833 234.5,412.167 172.5,362.5C 285.332,361.5 398.332,361.167 511.5,361.5 Z"/></g>
</svg>
