<?xml version="1.0" encoding="UTF-8"?>
<!DOCTYPE svg PUBLIC "-//W3C//DTD SVG 1.1//EN" "http://www.w3.org/Graphics/SVG/1.1/DTD/svg11.dtd">
<svg xmlns="http://www.w3.org/2000/svg" version="1.1" width="512px" height="512px" style="shape-rendering:geometricPrecision; text-rendering:geometricPrecision; image-rendering:optimizeQuality; fill-rule:evenodd; clip-rule:evenodd" xmlns:xlink="http://www.w3.org/1999/xlink">
<g><path style="opacity:0.99" fill="#ffe376" d="M 256.5,23.5 C 259.313,33.9982 261.313,44.6649 262.5,55.5C 173.264,56.6811 109.431,97.3477 71,177.5C 53.6359,220.526 50.8026,264.526 62.5,309.5C 51.7091,310.711 41.0424,311.711 30.5,312.5C 13.1041,237.978 27.6041,170.312 74,109.5C 121.498,53.0057 182.331,24.339 256.5,23.5 Z"/></g>
<g><path style="opacity:1" fill="#ffde55" d="M 256.5,23.5 C 338.865,25.5897 403.365,60.2563 450,127.5C 491.113,194.085 498.78,264.418 473,338.5C 442.098,413.734 387.264,461.567 308.5,482C 214.601,499.926 136.435,473.092 74,401.5C 53.1145,375.06 38.6145,345.394 30.5,312.5C 41.0424,311.711 51.7091,310.711 62.5,309.5C 62.5,310.167 62.8333,310.5 63.5,310.5C 81.3689,370.208 118.702,413.042 175.5,439C 251.787,468.677 321.787,458.01 385.5,407C 435.68,360.457 458.513,302.957 454,234.5C 441.853,154.706 398.686,99.2063 324.5,68C 304.465,60.6577 283.799,56.491 262.5,55.5C 261.313,44.6649 259.313,33.9982 256.5,23.5 Z"/></g>
<g><path style="opacity:1" fill="#feda44" d="M 262.5,55.5 C 263.778,71.4983 263.778,87.4983 262.5,103.5C 260.37,101.873 258.37,100.04 256.5,98C 255.833,97.3333 255.167,97.3333 254.5,98C 222.833,129.667 191.167,161.333 159.5,193C 170.681,204.348 182.014,215.514 193.5,226.5C 208.854,211.479 224.187,196.479 239.5,181.5C 215.833,228.5 180.5,263.833 133.5,287.5C 143.812,276.854 154.145,266.187 164.5,255.5C 153.514,244.014 142.348,232.681 131,221.5C 119.652,232.681 108.486,244.014 97.5,255.5C 108.521,266.854 119.521,278.187 130.5,289.5C 108.641,298.791 86.308,305.791 63.5,310.5C 62.8333,310.5 62.5,310.167 62.5,309.5C 50.8026,264.526 53.6359,220.526 71,177.5C 109.431,97.3477 173.264,56.6811 262.5,55.5 Z"/></g>
<g><path style="opacity:1" fill="#fecd01" d="M 262.5,55.5 C 283.799,56.491 304.465,60.6577 324.5,68C 398.686,99.2063 441.853,154.706 454,234.5C 458.513,302.957 435.68,360.457 385.5,407C 321.787,458.01 251.787,468.677 175.5,439C 118.702,413.042 81.3689,370.208 63.5,310.5C 86.308,305.791 108.641,298.791 130.5,289.5C 131.5,288.833 132.5,288.167 133.5,287.5C 180.5,263.833 215.833,228.5 239.5,181.5C 244.506,175.314 250.173,170.147 256.5,166C 276.68,186.347 297.014,206.514 317.5,226.5C 328.986,215.514 340.319,204.348 351.5,193C 321.632,163.299 291.965,133.465 262.5,103.5C 263.778,87.4983 263.778,71.4983 262.5,55.5 Z"/></g>
<g><path style="opacity:1" fill="#f1f1f0" d="M 262.5,103.5 C 291.965,133.465 321.632,163.299 351.5,193C 340.319,204.348 328.986,215.514 317.5,226.5C 297.014,206.514 276.68,186.347 256.5,166C 250.173,170.147 244.506,175.314 239.5,181.5C 224.187,196.479 208.854,211.479 193.5,226.5C 182.014,215.514 170.681,204.348 159.5,193C 191.167,161.333 222.833,129.667 254.5,98C 255.167,97.3333 255.833,97.3333 256.5,98C 258.37,100.04 260.37,101.873 262.5,103.5 Z"/></g>
<g><path style="opacity:1" fill="#f1f1f0" d="M 133.5,287.5 C 132.5,288.167 131.5,288.833 130.5,289.5C 119.521,278.187 108.521,266.854 97.5,255.5C 108.486,244.014 119.652,232.681 131,221.5C 142.348,232.681 153.514,244.014 164.5,255.5C 154.145,266.187 143.812,276.854 133.5,287.5 Z"/></g>
<g><path style="opacity:1" fill="#f1f2f1" d="M 254.5,222.5 C 266.427,232.758 277.76,243.758 288.5,255.5C 277.833,266.833 266.833,277.833 255.5,288.5C 244.167,277.833 233.167,266.833 222.5,255.5C 233.188,244.479 243.855,233.479 254.5,222.5 Z"/></g>
<g><path style="opacity:1" fill="#f1f1ef" d="M 379.5,221.5 C 391.146,232.479 402.479,243.812 413.5,255.5C 402.514,266.986 391.348,278.319 380,289.5C 368.652,278.319 357.486,266.986 346.5,255.5C 357.521,244.146 368.521,232.813 379.5,221.5 Z"/></g>
<g><path style="opacity:1" fill="#f1f1f0" d="M 192.5,284.5 C 193.239,284.369 193.906,284.536 194.5,285C 214.68,305.347 235.014,325.514 255.5,345.5C 276.167,325.167 296.833,304.833 317.5,284.5C 328.986,295.486 340.319,306.652 351.5,318C 319.653,350.014 287.653,381.847 255.5,413.5C 223.347,381.847 191.347,350.014 159.5,318C 170.702,306.965 181.702,295.798 192.5,284.5 Z"/></g>
</svg>
