<?xml version="1.0" encoding="UTF-8"?>
<!DOCTYPE svg PUBLIC "-//W3C//DTD SVG 1.1//EN" "http://www.w3.org/Graphics/SVG/1.1/DTD/svg11.dtd">
<svg xmlns="http://www.w3.org/2000/svg" version="1.1" width="512px" height="512px" style="shape-rendering:geometricPrecision; text-rendering:geometricPrecision; image-rendering:optimizeQuality; fill-rule:evenodd; clip-rule:evenodd" xmlns:xlink="http://www.w3.org/1999/xlink">
<g><path style="opacity:0.996" fill="#f7931a" d="M 232.5,-0.5 C 247.5,-0.5 262.5,-0.5 277.5,-0.5C 369.216,10.5909 437.716,56.2576 483,136.5C 498.512,167.189 508.012,199.522 511.5,233.5C 511.5,248.167 511.5,262.833 511.5,277.5C 500.406,370.223 454.073,439.056 372.5,484C 342.69,498.774 311.356,507.941 278.5,511.5C 263.5,511.5 248.5,511.5 233.5,511.5C 140.782,500.408 71.9487,454.075 27,372.5C 12.2246,342.687 3.05792,311.354 -0.5,278.5C -0.5,263.5 -0.5,248.5 -0.5,233.5C 10.5937,140.777 56.927,71.9436 138.5,27C 168.313,12.2246 199.646,3.05792 232.5,-0.5 Z"/></g>
<g><path style="opacity:1" fill="#fffefd" d="M 244.5,89.5 C 253.897,91.1825 263.231,93.1825 272.5,95.5C 269.167,110.833 265.833,126.167 262.5,141.5C 269.846,142.837 277.179,144.171 284.5,145.5C 287.779,130.885 291.445,116.385 295.5,102C 304.912,103.686 314.245,106.02 323.5,109C 318.965,123.969 315.465,139.135 313,154.5C 331.248,160.117 346.915,169.784 360,183.5C 368.601,196.695 370.934,211.028 367,226.5C 362.371,244.295 351.205,255.629 333.5,260.5C 355.597,271.359 365.097,289.025 362,313.5C 353.146,356.709 326.646,375.542 282.5,370C 274.462,368.996 266.462,367.829 258.5,366.5C 255.319,381.224 251.819,395.891 248,410.5C 247.481,411.516 246.647,412.182 245.5,412.5C 236.735,410.476 228.068,408.142 219.5,405.5C 223.799,390.304 227.466,374.971 230.5,359.5C 223.609,358.149 216.776,356.483 210,354.5C 209.228,354.645 208.561,354.978 208,355.5C 204.181,370.109 200.681,384.776 197.5,399.5C 188.103,397.817 178.769,395.817 169.5,393.5C 172.534,378.029 176.201,362.696 180.5,347.5C 161.829,342.036 143.162,336.702 124.5,331.5C 128.678,320.768 133.512,310.435 139,300.5C 147.71,303.226 156.544,304.726 165.5,305C 169.165,303.332 171.332,300.499 172,296.5C 182.247,254.346 192.414,212.179 202.5,170C 202.255,164.761 199.922,160.761 195.5,158C 187.133,154.575 178.467,152.408 169.5,151.5C 171.347,142.11 173.514,132.777 176,123.5C 176.839,122.376 178.006,121.709 179.5,121.5C 197.536,125.843 215.536,130.176 233.5,134.5C 237.01,119.459 240.677,104.459 244.5,89.5 Z"/></g>
<g><path style="opacity:1" fill="#f7931c" d="M 253.5,174.5 C 270.885,176.906 287.218,182.406 302.5,191C 314.582,201.325 316.749,213.491 309,227.5C 301.594,234.97 292.594,238.304 282,237.5C 268.149,237.164 254.649,234.83 241.5,230.5C 241.167,230 240.833,229.5 240.5,229C 245.389,210.944 249.723,192.777 253.5,174.5 Z"/></g>
<g><path style="opacity:1" fill="#f7931c" d="M 232.5,258.5 C 251.633,261.822 269.966,267.655 287.5,276C 305.167,286.174 309.334,300.341 300,318.5C 290.74,327.072 279.74,330.739 267,329.5C 249.94,328.686 233.44,325.353 217.5,319.5C 222.974,299.273 227.974,278.939 232.5,258.5 Z"/></g>
</svg>
