<?xml version="1.0" encoding="UTF-8"?>
<!DOCTYPE svg PUBLIC "-//W3C//DTD SVG 1.1//EN" "http://www.w3.org/Graphics/SVG/1.1/DTD/svg11.dtd">
<svg xmlns="http://www.w3.org/2000/svg" version="1.1" width="512px" height="512px" style="shape-rendering:geometricPrecision; text-rendering:geometricPrecision; image-rendering:optimizeQuality; fill-rule:evenodd; clip-rule:evenodd" xmlns:xlink="http://www.w3.org/1999/xlink">
<g><path style="opacity:1" fill="#5d647e" d="M 511.5,102.5 C 511.5,204.5 511.5,306.5 511.5,408.5C 507.015,424.484 496.681,434.651 480.5,439C 330.5,439.667 180.5,439.667 30.5,439C 14.3186,434.651 3.98523,424.484 -0.5,408.5C -0.5,306.5 -0.5,204.5 -0.5,102.5C 3.98523,86.5156 14.3186,76.3489 30.5,72C 180.5,71.3333 330.5,71.3333 480.5,72C 496.681,76.3489 507.015,86.5156 511.5,102.5 Z"/></g>
<g><path style="opacity:1" fill="#fed000" d="M 95.5,135.5 C 95.5,167.5 95.5,199.5 95.5,231.5C 88.4921,231.666 81.4921,231.5 74.5,231C 69.6667,228.833 66.1667,225.333 64,220.5C 63.3333,195.833 63.3333,171.167 64,146.5C 66.1667,141.667 69.6667,138.167 74.5,136C 81.4921,135.5 88.4921,135.334 95.5,135.5 Z"/></g>
<g><path style="opacity:1" fill="#fe9500" d="M 95.5,135.5 C 100.833,135.5 106.167,135.5 111.5,135.5C 111.5,143.5 111.5,151.5 111.5,159.5C 138.167,159.5 164.833,159.5 191.5,159.5C 191.5,164.833 191.5,170.167 191.5,175.5C 164.833,175.5 138.167,175.5 111.5,175.5C 111.5,180.833 111.5,186.167 111.5,191.5C 138.167,191.5 164.833,191.5 191.5,191.5C 191.5,196.833 191.5,202.167 191.5,207.5C 164.833,207.5 138.167,207.5 111.5,207.5C 111.5,215.5 111.5,223.5 111.5,231.5C 106.167,231.5 100.833,231.5 95.5,231.5C 95.5,199.5 95.5,167.5 95.5,135.5 Z"/></g>
<g><path style="opacity:1" fill="#fed000" d="M 111.5,135.5 C 134.502,135.333 157.502,135.5 180.5,136C 190.19,140.884 193.856,148.717 191.5,159.5C 164.833,159.5 138.167,159.5 111.5,159.5C 111.5,151.5 111.5,143.5 111.5,135.5 Z"/></g>
<g><path style="opacity:1" fill="#fe4f19" d="M 365.5,149.5 C 349.465,167.897 347.298,187.897 359,209.5C 361.001,212.331 363.167,214.997 365.5,217.5C 345.062,234.65 323.729,235.817 301.5,221C 280.729,200.491 278.229,177.991 294,153.5C 312.447,133.879 333.614,130.379 357.5,143C 360.331,145.001 362.997,147.167 365.5,149.5 Z"/></g>
<g><path style="opacity:1" fill="#fed001" d="M 365.5,217.5 C 363.167,214.997 361.001,212.331 359,209.5C 347.298,187.897 349.465,167.897 365.5,149.5C 385.275,132.561 406.275,131.061 428.5,145C 449.377,163.37 453.21,184.87 440,209.5C 423.185,231.598 402.018,237.098 376.5,226C 372.442,223.642 368.775,220.808 365.5,217.5 Z"/></g>
<g><path style="opacity:1" fill="#fed100" d="M 191.5,175.5 C 191.5,180.833 191.5,186.167 191.5,191.5C 164.833,191.5 138.167,191.5 111.5,191.5C 111.5,186.167 111.5,180.833 111.5,175.5C 138.167,175.5 164.833,175.5 191.5,175.5 Z"/></g>
<g><path style="opacity:1" fill="#fed001" d="M 191.5,207.5 C 193.856,218.283 190.19,226.116 180.5,231C 157.502,231.5 134.502,231.667 111.5,231.5C 111.5,223.5 111.5,215.5 111.5,207.5C 138.167,207.5 164.833,207.5 191.5,207.5 Z"/></g>
<g><path style="opacity:1" fill="#b7b9bf" d="M 74.5,295.5 C 90.8367,295.333 107.17,295.5 123.5,296C 128.91,297.743 132.744,301.243 135,306.5C 136.126,314.045 135.46,321.379 133,328.5C 130.635,331.869 127.468,334.036 123.5,335C 107.167,335.667 90.8333,335.667 74.5,335C 69.2425,332.744 65.7425,328.91 64,323.5C 60.3735,311.187 63.8735,301.853 74.5,295.5 Z"/></g>
<g><path style="opacity:1" fill="#b7b9bf" d="M 178.5,295.5 C 194.837,295.333 211.17,295.5 227.5,296C 232.91,297.743 236.744,301.243 239,306.5C 240.126,314.045 239.46,321.379 237,328.5C 234.635,331.869 231.468,334.036 227.5,335C 211.167,335.667 194.833,335.667 178.5,335C 173.243,332.744 169.743,328.91 168,323.5C 164.373,311.187 167.873,301.853 178.5,295.5 Z"/></g>
<g><path style="opacity:1" fill="#b7b9bf" d="M 282.5,295.5 C 298.837,295.333 315.17,295.5 331.5,296C 336.91,297.743 340.744,301.243 343,306.5C 344.126,314.045 343.46,321.379 341,328.5C 338.635,331.869 335.468,334.036 331.5,335C 315.167,335.667 298.833,335.667 282.5,335C 277.243,332.744 273.743,328.91 272,323.5C 268.373,311.187 271.873,301.853 282.5,295.5 Z"/></g>
<g><path style="opacity:1" fill="#b7b9bf" d="M 386.5,295.5 C 402.837,295.333 419.17,295.5 435.5,296C 440.91,297.743 444.744,301.243 447,306.5C 448.126,314.045 447.46,321.379 445,328.5C 442.635,331.869 439.468,334.036 435.5,335C 419.167,335.667 402.833,335.667 386.5,335C 381.243,332.744 377.743,328.91 376,323.5C 372.373,311.187 375.873,301.853 386.5,295.5 Z"/></g>
<g><path style="opacity:1" fill="#898794" d="M 68.5,367.5 C 123.834,367.333 179.168,367.5 234.5,368C 239.535,371.013 240.702,375.18 238,380.5C 236.829,381.893 235.329,382.727 233.5,383C 178.5,383.667 123.5,383.667 68.5,383C 63.4648,379.987 62.2981,375.82 65,370.5C 66.1451,369.364 67.3117,368.364 68.5,367.5 Z"/></g>
<g><path style="opacity:1" fill="#898794" d="M 260.5,367.5 C 286.502,367.333 312.502,367.5 338.5,368C 343.535,371.013 344.702,375.18 342,380.5C 340.829,381.893 339.329,382.727 337.5,383C 311.833,383.667 286.167,383.667 260.5,383C 255.465,379.987 254.298,375.82 257,370.5C 258.145,369.364 259.312,368.364 260.5,367.5 Z"/></g>
</svg>
