<?xml version="1.0" encoding="UTF-8"?>
<!DOCTYPE svg PUBLIC "-//W3C//DTD SVG 1.1//EN" "http://www.w3.org/Graphics/SVG/1.1/DTD/svg11.dtd">
<svg xmlns="http://www.w3.org/2000/svg" version="1.1" width="512px" height="512px" style="shape-rendering:geometricPrecision; text-rendering:geometricPrecision; image-rendering:optimizeQuality; fill-rule:evenodd; clip-rule:evenodd" xmlns:xlink="http://www.w3.org/1999/xlink">
<g><path style="opacity:0.993" fill="#fed943" d="M 256.5,23.5 C 259.451,33.9307 261.118,44.5974 261.5,55.5C 176.888,56.5392 114.722,94.2058 75,168.5C 53.7778,213.972 49.6111,260.972 62.5,309.5C 51.5229,310.457 40.5229,311.124 29.5,311.5C 11.6542,226.741 32.3209,153.074 91.5,90.5C 137.219,45.8224 192.219,23.4891 256.5,23.5 Z"/></g>
<g><path style="opacity:1" fill="#fecd01" d="M 256.5,23.5 C 338.865,25.5897 403.365,60.2563 450,127.5C 491.113,194.085 498.78,264.418 473,338.5C 442.098,413.734 387.264,461.567 308.5,482C 214.601,499.926 136.435,473.092 74,401.5C 53.0659,374.631 38.2326,344.631 29.5,311.5C 40.5229,311.124 51.5229,310.457 62.5,309.5C 62.5,310.167 62.8333,310.5 63.5,310.5C 82.6393,372.811 122.306,416.644 182.5,442C 255.605,467.273 322.605,456.273 383.5,409C 436.956,361.682 460.456,302.182 454,230.5C 439.572,147.079 392.405,91.5791 312.5,64C 296.148,59.2595 279.481,56.4262 262.5,55.5C 262.167,55.5 261.833,55.5 261.5,55.5C 261.118,44.5974 259.451,33.9307 256.5,23.5 Z"/></g>
<g><path style="opacity:1" fill="#ebbf00" d="M 261.5,55.5 C 261.833,55.5 262.167,55.5 262.5,55.5C 265.185,85.3582 262.518,114.692 254.5,143.5C 233.5,143.5 212.5,143.5 191.5,143.5C 191.5,175.5 191.5,207.5 191.5,239.5C 179.495,239.333 167.495,239.5 155.5,240C 144.903,244.106 141.403,251.606 145,262.5C 148.584,268.256 153.751,271.256 160.5,271.5C 156.742,274.557 152.742,277.39 148.5,280C 121.916,295.249 93.5824,305.415 63.5,310.5C 62.8333,310.5 62.5,310.167 62.5,309.5C 49.6111,260.972 53.7778,213.972 75,168.5C 114.722,94.2058 176.888,56.5392 261.5,55.5 Z"/></g>
<g><path style="opacity:1" fill="#ddb200" d="M 262.5,55.5 C 279.481,56.4262 296.148,59.2595 312.5,64C 392.405,91.5791 439.572,147.079 454,230.5C 460.456,302.182 436.956,361.682 383.5,409C 322.605,456.273 255.605,467.273 182.5,442C 122.306,416.644 82.6393,372.811 63.5,310.5C 93.5824,305.415 121.916,295.249 148.5,280C 152.742,277.39 156.742,274.557 160.5,271.5C 170.833,271.5 181.167,271.5 191.5,271.5C 191.5,303.5 191.5,335.5 191.5,367.5C 215.502,367.667 239.502,367.5 263.5,367C 313.711,361.113 346.877,334.28 363,286.5C 374.338,239.038 361.504,199.538 324.5,168C 303.913,152.217 280.58,144.05 254.5,143.5C 262.518,114.692 265.185,85.3582 262.5,55.5 Z"/></g>
<g><path style="opacity:1" fill="#f0f1f1" d="M 254.5,143.5 C 280.58,144.05 303.913,152.217 324.5,168C 361.504,199.538 374.338,239.038 363,286.5C 346.877,334.28 313.711,361.113 263.5,367C 239.502,367.5 215.502,367.667 191.5,367.5C 191.5,335.5 191.5,303.5 191.5,271.5C 181.167,271.5 170.833,271.5 160.5,271.5C 153.751,271.256 148.584,268.256 145,262.5C 141.403,251.606 144.903,244.106 155.5,240C 167.495,239.5 179.495,239.333 191.5,239.5C 191.5,207.5 191.5,175.5 191.5,143.5C 212.5,143.5 233.5,143.5 254.5,143.5 Z"/></g>
<g><path style="opacity:1" fill="#eabe00" d="M 242.5,175.5 C 237.429,187.32 231.095,198.32 223.5,208.5C 223.5,197.5 223.5,186.5 223.5,175.5C 229.833,175.5 236.167,175.5 242.5,175.5 Z"/></g>
<g><path style="opacity:1" fill="#ddb201" d="M 242.5,175.5 C 284.521,172.759 314.021,190.426 331,228.5C 341.652,267.884 330.485,299.384 297.5,323C 289.088,328.037 280.088,331.704 270.5,334C 254.866,335.341 239.2,335.841 223.5,335.5C 223.5,314.167 223.5,292.833 223.5,271.5C 235.505,271.667 247.505,271.5 259.5,271C 271.333,265.504 274.166,257.004 268,245.5C 265.559,243.031 262.726,241.198 259.5,240C 247.505,239.5 235.505,239.333 223.5,239.5C 223.5,229.167 223.5,218.833 223.5,208.5C 231.095,198.32 237.429,187.32 242.5,175.5 Z"/></g>
</svg>
