<?xml version="1.0" encoding="UTF-8"?>
<!DOCTYPE svg PUBLIC "-//W3C//DTD SVG 1.1//EN" "http://www.w3.org/Graphics/SVG/1.1/DTD/svg11.dtd">
<svg xmlns="http://www.w3.org/2000/svg" version="1.1" width="512px" height="512px" style="shape-rendering:geometricPrecision; text-rendering:geometricPrecision; image-rendering:optimizeQuality; fill-rule:evenodd; clip-rule:evenodd" xmlns:xlink="http://www.w3.org/1999/xlink">
<g><path style="opacity:0.996" fill="#0dcef9" d="M 232.5,-0.5 C 247.833,-0.5 263.167,-0.5 278.5,-0.5C 334.434,5.30921 383.434,26.6425 425.5,63.5C 482.852,133.265 500.685,212.265 479,300.5C 449.567,394.47 387.4,454.637 292.5,481C 206.911,499.351 130.578,480.851 63.5,425.5C 26.642,383.433 5.30866,334.433 -0.5,278.5C -0.5,263.167 -0.5,247.833 -0.5,232.5C 11.9006,134.848 62.234,64.3481 150.5,21C 176.892,9.73692 204.225,2.57026 232.5,-0.5 Z"/></g>
<g><path style="opacity:1" fill="#dbf4fe" d="M 415.5,112.5 C 450.437,189.909 446.937,265.576 405,339.5C 354.163,416.342 282.33,453.842 189.5,452C 180.08,451.38 170.747,450.213 161.5,448.5C 92.3815,412.652 52.5482,355.986 42,278.5C 35.8503,192.191 68.017,124.358 138.5,75C 206.468,33.9619 276.802,29.6286 349.5,62C 374.629,74.7326 396.629,91.566 415.5,112.5 Z"/></g>
<g><path style="opacity:1" fill="#09a6ee" d="M 425.5,63.5 C 475.63,108.758 504.297,165.092 511.5,232.5C 511.5,247.833 511.5,263.167 511.5,278.5C 501.026,367.433 457.36,434.6 380.5,480C 348.466,497.292 314.466,507.792 278.5,511.5C 263.167,511.5 247.833,511.5 232.5,511.5C 165.092,504.297 108.758,475.63 63.5,425.5C 130.578,480.851 206.911,499.351 292.5,481C 387.4,454.637 449.567,394.47 479,300.5C 500.685,212.265 482.852,133.265 425.5,63.5 Z"/></g>
<g><path style="opacity:1" fill="#b1abb5" d="M 255.5,74.5 C 255.5,87.1667 255.5,99.8333 255.5,112.5C 255.5,134.5 255.5,156.5 255.5,178.5C 254.078,178.709 252.745,179.209 251.5,180C 220.283,202.099 188.95,223.933 157.5,245.5C 188.654,189.194 219.821,132.86 251,76.5C 252.11,74.9632 253.61,74.2965 255.5,74.5 Z"/></g>
<g><path style="opacity:1" fill="#776d78" d="M 255.5,112.5 C 275.392,147.276 295.059,182.276 314.5,217.5C 297.067,206.554 279.734,194.721 262.5,182C 260.423,180.295 258.09,179.128 255.5,178.5C 255.5,156.5 255.5,134.5 255.5,112.5 Z"/></g>
<g><path style="opacity:1" fill="#97e4f9" d="M 415.5,112.5 C 462.226,166.046 479.059,228.046 466,298.5C 446.522,379.643 397.355,433.81 318.5,461C 264.416,476.789 212.082,472.622 161.5,448.5C 170.747,450.213 180.08,451.38 189.5,452C 282.33,453.842 354.163,416.342 405,339.5C 446.937,265.576 450.437,189.909 415.5,112.5 Z"/></g>
<g><path style="opacity:1" fill="#786e79" d="M 255.5,178.5 C 255.5,217.833 255.5,257.167 255.5,296.5C 255.5,304.833 255.5,313.167 255.5,321.5C 222.717,299.267 190.051,276.767 157.5,254C 154.885,251.093 154.885,248.26 157.5,245.5C 188.95,223.933 220.283,202.099 251.5,180C 252.745,179.209 254.078,178.709 255.5,178.5 Z"/></g>
<g><path style="opacity:1" fill="#554e57" d="M 255.5,74.5 C 258.642,74.7993 260.809,76.4659 262,79.5C 292.729,134.723 323.229,190.057 353.5,245.5C 341.131,237.557 328.964,229.224 317,220.5C 319.733,227.3 323.067,233.966 327,240.5C 327.667,242.5 327.667,244.5 327,246.5C 303.225,263.3 279.392,279.966 255.5,296.5C 255.5,257.167 255.5,217.833 255.5,178.5C 258.09,179.128 260.423,180.295 262.5,182C 279.734,194.721 297.067,206.554 314.5,217.5C 295.059,182.276 275.392,147.276 255.5,112.5C 255.5,99.8333 255.5,87.1667 255.5,74.5 Z"/></g>
<g><path style="opacity:1" fill="#453e43" d="M 353.5,245.5 C 356.39,248.915 356.056,252.082 352.5,255C 321.991,276.087 291.658,297.421 261.5,319C 259.593,320.122 257.593,320.955 255.5,321.5C 255.5,313.167 255.5,304.833 255.5,296.5C 279.392,279.966 303.225,263.3 327,246.5C 327.667,244.5 327.667,242.5 327,240.5C 323.067,233.966 319.733,227.3 317,220.5C 328.964,229.224 341.131,237.557 353.5,245.5 Z"/></g>
<g><path style="opacity:1" fill="#b1abb5" d="M 255.5,358.5 C 255.5,370.167 255.5,381.833 255.5,393.5C 255.5,405.167 255.5,416.833 255.5,428.5C 253.61,428.703 252.11,428.037 251,426.5C 222.97,384.636 195.137,342.636 167.5,300.5C 168.79,299.592 170.123,299.759 171.5,301C 195.5,318 219.5,335 243.5,352C 247.183,354.872 251.183,357.038 255.5,358.5 Z"/></g>
<g><path style="opacity:1" fill="#463f44" d="M 255.5,428.5 C 255.5,416.833 255.5,405.167 255.5,393.5C 269.66,373.185 283.327,352.518 296.5,331.5C 311.539,320.469 326.873,309.802 342.5,299.5C 343.583,300.365 343.749,301.365 343,302.5C 315.419,343.328 288.085,384.328 261,425.5C 259.736,427.607 257.903,428.607 255.5,428.5 Z"/></g>
<g><path style="opacity:1" fill="#554e57" d="M 296.5,331.5 C 283.327,352.518 269.66,373.185 255.5,393.5C 255.5,381.833 255.5,370.167 255.5,358.5C 256.552,358.649 257.552,358.483 258.5,358C 271.323,349.336 283.989,340.503 296.5,331.5 Z"/></g>
</svg>
