<?xml version="1.0" encoding="UTF-8"?>
<!DOCTYPE svg PUBLIC "-//W3C//DTD SVG 1.1//EN" "http://www.w3.org/Graphics/SVG/1.1/DTD/svg11.dtd">
<svg xmlns="http://www.w3.org/2000/svg" version="1.1" width="512px" height="512px" style="shape-rendering:geometricPrecision; text-rendering:geometricPrecision; image-rendering:optimizeQuality; fill-rule:evenodd; clip-rule:evenodd" xmlns:xlink="http://www.w3.org/1999/xlink">
<g><path style="opacity:0.975" fill="#2d495f" d="M 237.5,20.5 C 250.561,20.0777 263.561,20.5777 276.5,22C 283.628,27.575 284.295,33.9084 278.5,41C 275.845,42.4406 273.012,43.2739 270,43.5C 189.669,40.8345 126.003,71.8345 79,136.5C 51.675,179.129 39.3417,225.796 42,276.5C 37.3128,282.935 31.4794,284.102 24.5,280C 22.396,277.958 21.2293,275.458 21,272.5C 17.8435,173.797 58.3435,99.2973 142.5,49C 172.387,33.1176 204.054,23.6176 237.5,20.5 Z"/></g>
<g><path style="opacity:0.993" fill="#e9eeef" d="M 453.5,192.5 C 448.599,167.768 434.266,151.268 410.5,143C 376.85,136.408 352.684,148.575 338,179.5C 336.515,183.449 335.349,187.449 334.5,191.5C 311.027,172.216 299.027,147.216 298.5,116.5C 298.585,104.164 300.585,92.1637 304.5,80.5C 326.237,35.1249 362.237,15.6249 412.5,22C 454,31.5 479.5,57 489,98.5C 494.027,128.729 487.027,155.729 468,179.5C 463.594,184.411 458.76,188.745 453.5,192.5 Z"/></g>
<g><path style="opacity:1" fill="#7b8c8c" d="M 388.5,71.5 C 408.736,70.6978 421.57,80.0312 427,99.5C 426.486,126.679 412.652,139.179 385.5,137C 362.721,127.006 356.221,110.506 366,87.5C 371.739,79.5805 379.239,74.2472 388.5,71.5 Z"/></g>
<g><path style="opacity:0.999" fill="#009adf" d="M 304.5,80.5 C 300.585,92.1637 298.585,104.164 298.5,116.5C 299.027,147.216 311.027,172.216 334.5,191.5C 343.081,198.959 352.747,204.626 363.5,208.5C 356.628,207.787 349.794,206.787 343,205.5C 327.028,208.144 320.362,217.477 323,233.5C 324,235.5 325,237.5 326,239.5C 331.367,244.532 336.367,249.865 341,255.5C 344.33,269.481 347.664,283.481 351,297.5C 358.264,306.767 366.264,315.434 375,323.5C 379.068,332.872 382.235,342.539 384.5,352.5C 384.548,355.292 383.215,357.125 380.5,358C 337.565,384.74 291.898,391.24 243.5,377.5C 244.787,375.363 245.621,373.03 246,370.5C 246.048,355.432 246.715,340.432 248,325.5C 255.598,315.899 263.931,306.899 273,298.5C 276.387,293.675 277.72,288.341 277,282.5C 273.273,274.045 269.273,265.712 265,257.5C 255.743,248.906 245.91,241.073 235.5,234C 231.741,232.087 227.741,231.253 223.5,231.5C 216.081,232.084 208.748,233.25 201.5,235C 183.76,236.597 174.927,228.43 175,210.5C 178.667,204.167 182.333,197.833 186,191.5C 186.333,184.833 186.667,178.167 187,171.5C 188,169.5 189,167.5 190,165.5C 197,158.5 204,151.5 211,144.5C 213.975,138.242 216.142,131.742 217.5,125C 217.385,120.32 215.885,116.153 213,112.5C 204.623,105.95 196.123,99.6163 187.5,93.5C 185.858,92.197 184.191,90.8637 182.5,89.5C 202.019,80.2868 222.686,75.1201 244.5,74C 264.901,72.8388 284.901,75.0054 304.5,80.5 Z"/></g>
<g><path style="opacity:1" fill="#03b059" d="M 182.5,89.5 C 184.191,90.8637 185.858,92.197 187.5,93.5C 144.021,129.477 123.687,175.81 126.5,232.5C 123.311,231.486 120.478,229.82 118,227.5C 114.279,220.335 110.946,213.002 108,205.5C 106.833,204.333 105.667,203.167 104.5,202C 97.7827,198.98 91.4494,195.48 85.5,191.5C 103.508,143.827 135.841,109.827 182.5,89.5 Z"/></g>
<g><path style="opacity:1" fill="#00ce66" d="M 187.5,93.5 C 196.123,99.6163 204.623,105.95 213,112.5C 215.885,116.153 217.385,120.32 217.5,125C 216.142,131.742 213.975,138.242 211,144.5C 204,151.5 197,158.5 190,165.5C 189,167.5 188,169.5 187,171.5C 186.667,178.167 186.333,184.833 186,191.5C 182.333,197.833 178.667,204.167 175,210.5C 174.927,228.43 183.76,236.597 201.5,235C 208.748,233.25 216.081,232.084 223.5,231.5C 227.741,231.253 231.741,232.087 235.5,234C 245.91,241.073 255.743,248.906 265,257.5C 269.273,265.712 273.273,274.045 277,282.5C 277.72,288.341 276.387,293.675 273,298.5C 263.931,306.899 255.598,315.899 248,325.5C 246.715,340.432 246.048,355.432 246,370.5C 245.621,373.03 244.787,375.363 243.5,377.5C 243.167,377.5 242.833,377.5 242.5,377.5C 230.58,374.195 219.247,369.528 208.5,363.5C 203.486,352.478 197.652,341.812 191,331.5C 184.917,325.576 178.417,320.243 171.5,315.5C 171.108,313.821 170.608,312.154 170,310.5C 169.667,296.5 169.333,282.5 169,268.5C 168.275,266.051 167.275,263.717 166,261.5C 159.167,253.333 151.667,245.833 143.5,239C 138.393,236.464 133.06,234.631 127.5,233.5C 127.5,232.833 127.167,232.5 126.5,232.5C 123.687,175.81 144.021,129.477 187.5,93.5 Z"/></g>
<g><path style="opacity:1" fill="#7b8c8c" d="M 453.5,192.5 C 446.703,198.408 439.036,203.074 430.5,206.5C 408.235,213.634 385.902,214.301 363.5,208.5C 352.747,204.626 343.081,198.959 334.5,191.5C 335.349,187.449 336.515,183.449 338,179.5C 352.684,148.575 376.85,136.408 410.5,143C 434.266,151.268 448.599,167.768 453.5,192.5 Z"/></g>
<g><path style="opacity:1" fill="#0181bd" d="M 85.5,191.5 C 91.4494,195.48 97.7827,198.98 104.5,202C 105.667,203.167 106.833,204.333 108,205.5C 110.946,213.002 114.279,220.335 118,227.5C 120.478,229.82 123.311,231.486 126.5,232.5C 127.167,232.5 127.5,232.833 127.5,233.5C 128.605,257.719 135.272,280.552 147.5,302C 147.272,302.399 146.938,302.565 146.5,302.5C 124.291,296.692 102.291,297.358 80.5,304.5C 69.9424,266.21 71.6091,228.544 85.5,191.5 Z"/></g>
<g><path style="opacity:1" fill="#01ce66" d="M 363.5,208.5 C 385.902,214.301 408.235,213.634 430.5,206.5C 440.303,241.46 439.636,276.127 428.5,310.5C 423.584,316.268 418.751,322.268 414,328.5C 405.497,338.182 395.997,346.515 385.5,353.5C 385.5,352.833 385.167,352.5 384.5,352.5C 382.235,342.539 379.068,332.872 375,323.5C 366.264,315.434 358.264,306.767 351,297.5C 347.664,283.481 344.33,269.481 341,255.5C 336.367,249.865 331.367,244.532 326,239.5C 325,237.5 324,235.5 323,233.5C 320.362,217.477 327.028,208.144 343,205.5C 349.794,206.787 356.628,207.787 363.5,208.5 Z"/></g>
<g><path style="opacity:0.975" fill="#2d495f" d="M 475.5,228.5 C 483.451,227.544 488.285,230.877 490,238.5C 493.154,337.204 452.654,411.704 368.5,462C 327.843,483.664 284.51,492.997 238.5,490C 228.723,486.932 226.223,480.766 231,471.5C 232.579,469.959 234.413,468.792 236.5,468C 306.756,471.925 365.922,448.425 414,397.5C 453.728,351.317 471.728,297.65 468,236.5C 469.353,232.65 471.853,229.983 475.5,228.5 Z"/></g>
<g><path style="opacity:1" fill="#049ade" d="M 127.5,233.5 C 133.06,234.631 138.393,236.464 143.5,239C 151.667,245.833 159.167,253.333 166,261.5C 167.275,263.717 168.275,266.051 169,268.5C 169.333,282.5 169.667,296.5 170,310.5C 170.608,312.154 171.108,313.821 171.5,315.5C 163.541,310.355 155.208,306.021 146.5,302.5C 146.938,302.565 147.272,302.399 147.5,302C 135.272,280.552 128.605,257.719 127.5,233.5 Z"/></g>
<g><path style="opacity:0.995" fill="#e9eeef" d="M 146.5,302.5 C 155.208,306.021 163.541,310.355 171.5,315.5C 178.417,320.243 184.917,325.576 191,331.5C 197.652,341.812 203.486,352.478 208.5,363.5C 210.706,371.684 212.039,380.017 212.5,388.5C 213.185,402.878 210.852,416.711 205.5,430C 205.728,430.399 206.062,430.565 206.5,430.5C 199.897,446.764 189.564,460.097 175.5,470.5C 169.516,437.192 149.516,419.859 115.5,418.5C 88.7885,420.37 70.2885,433.704 60,458.5C 58.6409,462.405 57.8076,466.405 57.5,470.5C 20.8982,438.37 11.3982,399.37 29,353.5C 40.1654,330.834 57.3321,314.501 80.5,304.5C 102.291,297.358 124.291,296.692 146.5,302.5 Z"/></g>
<g><path style="opacity:1" fill="#0db060" d="M 428.5,310.5 C 422.929,329.307 414.429,346.64 403,362.5C 399.301,367.027 395.468,371.361 391.5,375.5C 388.894,368.347 386.894,361.014 385.5,353.5C 395.997,346.515 405.497,338.182 414,328.5C 418.751,322.268 423.584,316.268 428.5,310.5 Z"/></g>
<g><path style="opacity:1" fill="#7b8c8c" d="M 111.5,340.5 C 130.128,339.726 142.628,348.059 149,365.5C 151.796,386.766 142.963,400.266 122.5,406C 96.4132,406.58 83.5799,393.747 84,367.5C 87.804,352.861 96.9706,343.861 111.5,340.5 Z"/></g>
<g><path style="opacity:1" fill="#0081bd" d="M 384.5,352.5 C 385.167,352.5 385.5,352.833 385.5,353.5C 386.894,361.014 388.894,368.347 391.5,375.5C 363.254,408.153 327.588,427.986 284.5,435C 258.13,439.211 232.13,437.711 206.5,430.5C 206.062,430.565 205.728,430.399 205.5,430C 210.852,416.711 213.185,402.878 212.5,388.5C 225.044,391.543 235.044,387.876 242.5,377.5C 242.833,377.5 243.167,377.5 243.5,377.5C 291.898,391.24 337.565,384.74 380.5,358C 383.215,357.125 384.548,355.292 384.5,352.5 Z"/></g>
<g><path style="opacity:1" fill="#05b159" d="M 208.5,363.5 C 219.247,369.528 230.58,374.195 242.5,377.5C 235.044,387.876 225.044,391.543 212.5,388.5C 212.039,380.017 210.706,371.684 208.5,363.5 Z"/></g>
<g><path style="opacity:1" fill="#7c8d8d" d="M 175.5,470.5 C 152.698,487.767 127.031,493.934 98.5,489C 83.291,486.059 69.6243,479.892 57.5,470.5C 57.8076,466.405 58.6409,462.405 60,458.5C 70.2885,433.704 88.7885,420.37 115.5,418.5C 149.516,419.859 169.516,437.192 175.5,470.5 Z"/></g>
</svg>
