<?xml version="1.0" standalone="no"?>
<!DOCTYPE svg PUBLIC "-//W3C//DTD SVG 20010904//EN"
 "http://www.w3.org/TR/2001/REC-SVG-20010904/DTD/svg10.dtd">
<svg version="1.0" xmlns="http://www.w3.org/2000/svg"
 width="512.000000pt" height="512.000000pt" viewBox="0 0 512.000000 512.000000"
 preserveAspectRatio="xMidYMid meet">

<g transform="translate(0.000000,512.000000) scale(0.100000,-0.100000)"
fill="#000000" stroke="none">
<path d="M2390 5114 c-357 -27 -712 -128 -1020 -291 -611 -322 -1074 -888
-1265 -1544 -71 -244 -99 -448 -99 -719 0 -271 28 -475 99 -719 198 -682 689
-1263 1330 -1576 231 -112 451 -184 685 -224 813 -139 1623 110 2214 679 613
591 889 1433 746 2278 -57 335 -197 686 -388 972 -415 623 -1047 1019 -1792
1125 -107 15 -410 26 -510 19z m576 -1146 c1 -2 -66 -244 -150 -538 -85 -294
-153 -536 -152 -537 0 0 145 28 321 63 175 35 327 64 336 64 13 0 23 -35 54
-190 21 -105 36 -192 34 -194 -2 -2 -197 -42 -433 -90 -237 -47 -433 -89 -436
-93 -4 -5 -69 -228 -145 -498 -76 -269 -140 -496 -143 -502 -3 -10 152 -13
757 -13 l761 0 0 -200 0 -200 -1025 0 c-564 0 -1025 3 -1025 6 0 5 284 994
354 1234 14 46 24 86 22 87 -1 2 -148 -26 -326 -62 -178 -36 -329 -65 -335
-65 -10 0 -91 378 -82 386 2 2 196 43 433 90 236 48 431 88 433 90 2 2 84 285
183 631 99 345 181 630 183 634 4 5 372 -94 381 -103z"/>
</g>
</svg>
