<?xml version="1.0" encoding="UTF-8"?>
<!DOCTYPE svg PUBLIC "-//W3C//DTD SVG 1.1//EN" "http://www.w3.org/Graphics/SVG/1.1/DTD/svg11.dtd">
<svg xmlns="http://www.w3.org/2000/svg" version="1.1" width="500px" height="500px" style="shape-rendering:geometricPrecision; text-rendering:geometricPrecision; image-rendering:optimizeQuality; fill-rule:evenodd; clip-rule:evenodd" xmlns:xlink="http://www.w3.org/1999/xlink">
<g><path style="opacity:1" fill="#05abec" d="M 311.5,9.5 C 314.273,10.6572 317.273,11.3239 320.5,11.5C 320.833,11.5 321.167,11.5 321.5,11.5C 322.635,13.2132 324.302,13.8799 326.5,13.5C 326.611,14.1174 326.944,14.6174 327.5,15C 332.446,16.8165 337.446,18.3165 342.5,19.5C 347.715,22.9388 353.382,25.6055 359.5,27.5C 375.021,34.7522 389.354,43.7522 402.5,54.5C 404.214,57.2128 406.547,59.2128 409.5,60.5C 410.5,61.1667 411.5,61.8333 412.5,62.5C 412.5,64.5 413.5,65.5 415.5,65.5C 418.003,67.8327 420.669,69.9993 423.5,72C 425.141,73.129 426.141,74.629 426.5,76.5C 428.766,80.4356 431.766,83.7689 435.5,86.5C 437.766,90.4356 440.766,93.7689 444.5,96.5C 445.906,96.9731 446.573,97.9731 446.5,99.5C 446.427,101.027 447.094,102.027 448.5,102.5C 448.427,104.027 449.094,105.027 450.5,105.5C 457.749,114.32 463.749,123.986 468.5,134.5C 468.427,136.027 469.094,137.027 470.5,137.5C 470.837,141.836 472.504,145.503 475.5,148.5C 475.166,151.491 476.166,153.824 478.5,155.5C 481.453,165.362 484.787,175.028 488.5,184.5C 499.426,225.711 499.759,267.044 489.5,308.5C 487.882,312.575 486.882,316.908 486.5,321.5C 486.737,322.791 486.404,323.791 485.5,324.5C 484.883,324.611 484.383,324.944 484,325.5C 481.518,332.444 479.351,339.444 477.5,346.5C 477.672,347.492 477.338,348.158 476.5,348.5C 474.166,350.176 473.166,352.509 473.5,355.5C 473.672,356.492 473.338,357.158 472.5,357.5C 470.896,358.287 470.229,359.62 470.5,361.5C 469.094,361.973 468.427,362.973 468.5,364.5C 461.997,378.188 453.997,390.854 444.5,402.5C 443.094,402.973 442.427,403.973 442.5,405.5C 440.5,408.167 438.167,410.5 435.5,412.5C 434.094,412.973 433.427,413.973 433.5,415.5C 424.854,425.145 415.52,434.145 405.5,442.5C 403.596,442.738 402.262,443.738 401.5,445.5C 389.854,454.997 377.188,462.997 363.5,469.5C 361.326,469.75 359.659,470.75 358.5,472.5C 357.486,473.674 356.153,474.34 354.5,474.5C 351.509,474.166 349.176,475.166 347.5,477.5C 345.302,477.12 343.635,477.787 342.5,479.5C 342.158,480.338 341.492,480.672 340.5,480.5C 338.302,480.12 336.635,480.787 335.5,482.5C 333.102,482.259 331.102,482.926 329.5,484.5C 328.791,485.404 327.791,485.737 326.5,485.5C 324.302,485.12 322.635,485.787 321.5,487.5C 317.922,487.549 314.589,488.215 311.5,489.5C 283.673,497.038 255.34,499.538 226.5,497C 215.311,496.024 204.311,494.191 193.5,491.5C 191.485,490.076 189.152,489.41 186.5,489.5C 185.5,489.5 184.5,489.5 183.5,489.5C 179.498,487.39 175.165,486.057 170.5,485.5C 163.858,482.061 156.858,479.395 149.5,477.5C 145.839,474.171 141.506,472.171 136.5,471.5C 136.027,470.094 135.027,469.427 133.5,469.5C 126.668,466.588 120.334,462.921 114.5,458.5C 114.027,457.094 113.027,456.427 111.5,456.5C 108.883,455.214 106.55,453.547 104.5,451.5C 104.027,450.094 103.027,449.427 101.5,449.5C 101.027,448.094 100.027,447.427 98.5,447.5C 98.0269,446.094 97.0269,445.427 95.5,445.5C 93.1002,442.097 90.1002,439.43 86.5,437.5C 83.4372,433.434 79.7706,430.101 75.5,427.5C 74.1182,425.451 72.4516,423.785 70.5,422.5C 68.1667,420.833 66.1667,418.833 64.5,416.5C 64.5,414.5 63.5,413.5 61.5,413.5C 60.5,412.167 59.5,410.833 58.5,409.5C 57.7735,406.712 56.1068,404.712 53.5,403.5C 44.6616,392.65 36.995,380.984 30.5,368.5C 30.7709,366.62 30.1042,365.287 28.5,364.5C 28.573,362.973 27.9063,361.973 26.5,361.5C 21.4365,349.196 16.7699,336.696 12.5,324C 12.1639,322.97 11.4972,322.47 10.5,322.5C 2.20687,293.773 -1.12646,264.44 0.5,234.5C 1.80629,229.384 2.47295,224.051 2.5,218.5C 3.67809,205.943 6.01142,193.61 9.5,181.5C 12.7444,173.767 15.4111,165.767 17.5,157.5C 19.4741,155.572 20.9741,153.239 22,150.5C 24.456,145.259 26.6226,139.925 28.5,134.5C 35.0034,120.812 43.0034,108.146 52.5,96.5C 56.2343,93.7689 59.2343,90.4356 61.5,86.5C 65.5658,83.4372 68.8991,79.7706 71.5,75.5C 71.3284,74.5084 71.6618,73.8417 72.5,73.5C 74.0269,73.573 75.0269,72.9063 75.5,71.5C 79.4356,69.2343 82.7689,66.2343 85.5,62.5C 89.4356,60.2343 92.7689,57.2343 95.5,53.5C 107.764,43.5914 121.098,35.2581 135.5,28.5C 151.343,21.5714 167.343,15.2381 183.5,9.5C 226.209,-1.13828 268.876,-1.13828 311.5,9.5 Z M 167.5,95.5 C 210.851,95.0806 254.184,95.5806 297.5,97C 304.317,97.9295 310.983,99.4295 317.5,101.5C 319.897,103.195 322.563,104.528 325.5,105.5C 325.973,106.906 326.973,107.573 328.5,107.5C 328.973,108.906 329.973,109.573 331.5,109.5C 337.558,114.225 342.558,119.892 346.5,126.5C 357.314,143.276 363.314,161.61 364.5,181.5C 364.342,189.334 364.342,197.001 364.5,204.5C 363.33,213.49 361.497,222.49 359,231.5C 355.686,240.125 351.852,248.458 347.5,256.5C 346.094,256.973 345.427,257.973 345.5,259.5C 343.554,260.035 342.554,261.368 342.5,263.5C 339.167,266.167 336.167,269.167 333.5,272.5C 330.527,274.147 327.86,276.147 325.5,278.5C 323.847,278.66 322.514,279.326 321.5,280.5C 309.981,285.212 297.981,288.046 285.5,289C 263.524,290.351 241.524,290.851 219.5,290.5C 218.828,330.069 218.161,369.736 217.5,409.5C 201.167,409.5 184.833,409.5 168.5,409.5C 167.502,304.904 167.169,200.237 167.5,95.5 Z"/></g>
<g><path style="opacity:0.22" fill="#b2e4f9" d="M 311.5,9.5 C 314.829,9.21528 317.829,9.88195 320.5,11.5C 317.273,11.3239 314.273,10.6572 311.5,9.5 Z"/></g>
<g><path style="opacity:0.486" fill="#afe3f8" d="M 321.5,11.5 C 323.403,11.7959 325.07,12.4625 326.5,13.5C 324.302,13.8799 322.635,13.2132 321.5,11.5 Z"/></g>
<g><path style="opacity:0.718" fill="#96d9f6" d="M 326.5,13.5 C 332.129,14.929 337.463,16.929 342.5,19.5C 337.446,18.3165 332.446,16.8165 327.5,15C 326.944,14.6174 326.611,14.1174 326.5,13.5 Z"/></g>
<g><path style="opacity:0.82" fill="#93d9f6" d="M 183.5,9.5 C 167.343,15.2381 151.343,21.5714 135.5,28.5C 150.468,19.8382 166.468,13.5049 183.5,9.5 Z"/></g>
<g><path style="opacity:0.561" fill="#93daf6" d="M 342.5,19.5 C 348.598,21.384 354.265,24.0506 359.5,27.5C 353.382,25.6055 347.715,22.9388 342.5,19.5 Z"/></g>
<g><path style="opacity:0.471" fill="#a2def7" d="M 95.5,53.5 C 92.7689,57.2343 89.4356,60.2343 85.5,62.5C 88.2311,58.7657 91.5644,55.7657 95.5,53.5 Z"/></g>
<g><path style="opacity:0.733" fill="#98d9f6" d="M 402.5,54.5 C 405.427,55.7573 407.761,57.7573 409.5,60.5C 406.547,59.2128 404.214,57.2128 402.5,54.5 Z"/></g>
<g><path style="opacity:0.541" fill="#b3e4f8" d="M 412.5,62.5 C 413.833,63.1667 414.833,64.1667 415.5,65.5C 413.5,65.5 412.5,64.5 412.5,62.5 Z"/></g>
<g><path style="opacity:0.816" fill="#85d3f5" d="M 85.5,62.5 C 82.7689,66.2343 79.4356,69.2343 75.5,71.5C 78.2311,67.7657 81.5644,64.7657 85.5,62.5 Z"/></g>
<g><path style="opacity:0.69" fill="#a6def7" d="M 75.5,71.5 C 75.0269,72.9063 74.0269,73.573 72.5,73.5C 72.9731,72.0937 73.9731,71.427 75.5,71.5 Z"/></g>
<g><path style="opacity:0.922" fill="#99daf6" d="M 426.5,76.5 C 430.234,79.2311 433.234,82.5644 435.5,86.5C 431.766,83.7689 428.766,80.4356 426.5,76.5 Z"/></g>
<g><path style="opacity:0.71" fill="#92d8f6" d="M 71.5,75.5 C 68.8991,79.7706 65.5658,83.4372 61.5,86.5C 64.1009,82.2294 67.4342,78.5628 71.5,75.5 Z"/></g>
<g><path style="opacity:0.886" fill="#a2ddf7" d="M 435.5,86.5 C 439.234,89.2311 442.234,92.5644 444.5,96.5C 440.766,93.7689 437.766,90.4356 435.5,86.5 Z"/></g>
<g><path style="opacity:0.584" fill="#a0ddf7" d="M 61.5,86.5 C 59.2343,90.4356 56.2343,93.7689 52.5,96.5C 54.7657,92.5644 57.7657,89.2311 61.5,86.5 Z"/></g>
<g><path style="opacity:1" fill="#06b6ef" d="M 167.5,94.5 C 167.5,94.8333 167.5,95.1667 167.5,95.5C 167.169,200.237 167.502,304.904 168.5,409.5C 167.167,357.338 166.5,304.838 166.5,252C 166.5,199.332 166.833,146.832 167.5,94.5 Z"/></g>
<g><path style="opacity:0.565" fill="#a1e4f9" d="M 167.5,95.5 C 167.5,95.1667 167.5,94.8333 167.5,94.5C 208.168,94.3333 248.835,94.5 289.5,95C 296.606,95.2822 303.606,96.2822 310.5,98C 313.281,98.5218 315.615,99.6885 317.5,101.5C 310.983,99.4295 304.317,97.9295 297.5,97C 254.184,95.5806 210.851,95.0806 167.5,95.5 Z"/></g>
<g><path style="opacity:0.859" fill="#8edbf5" d="M 317.5,101.5 C 320.852,101.53 323.518,102.863 325.5,105.5C 322.563,104.528 319.897,103.195 317.5,101.5 Z"/></g>
<g><path style="opacity:0.376" fill="#afe3f8" d="M 446.5,99.5 C 447.906,99.9731 448.573,100.973 448.5,102.5C 447.094,102.027 446.427,101.027 446.5,99.5 Z"/></g>
<g><path style="opacity:0.455" fill="#a5dff7" d="M 448.5,102.5 C 449.906,102.973 450.573,103.973 450.5,105.5C 449.094,105.027 448.427,104.027 448.5,102.5 Z"/></g>
<g><path style="opacity:0.553" fill="#a4e3f3" d="M 325.5,105.5 C 327.027,105.427 328.027,106.094 328.5,107.5C 326.973,107.573 325.973,106.906 325.5,105.5 Z"/></g>
<g><path style="opacity:0.592" fill="#a2e2f2" d="M 328.5,107.5 C 330.027,107.427 331.027,108.094 331.5,109.5C 329.973,109.573 328.973,108.906 328.5,107.5 Z"/></g>
<g><path style="opacity:0.231" fill="#c0e9fa" d="M 468.5,134.5 C 469.906,134.973 470.573,135.973 470.5,137.5C 469.094,137.027 468.427,136.027 468.5,134.5 Z"/></g>
<g><path style="opacity:0.831" fill="#9edcf7" d="M 470.5,137.5 C 472.951,140.74 474.618,144.407 475.5,148.5C 472.504,145.503 470.837,141.836 470.5,137.5 Z"/></g>
<g><path style="opacity:0.564" fill="#8cddf7" d="M 292.5,154.5 C 286.407,152.082 280.074,150.582 273.5,150C 255.523,148.734 237.523,148.234 219.5,148.5C 219.5,177.833 219.5,207.167 219.5,236.5C 236.837,236.667 254.17,236.5 271.5,236C 280.045,235.034 288.045,232.534 295.5,228.5C 294.106,230.708 292.106,232.208 289.5,233C 284.018,235.121 278.351,236.454 272.5,237C 254.614,238.581 236.78,238.748 219,237.5C 218.5,207.502 218.333,177.502 218.5,147.5C 238.192,147.171 257.859,147.671 277.5,149C 281.58,149.687 285.58,150.687 289.5,152C 290.942,152.377 291.942,153.21 292.5,154.5 Z"/></g>
<g><path style="opacity:1" fill="#04abec" d="M 292.5,154.5 C 299.629,157.632 304.296,162.965 306.5,170.5C 307.065,174.537 308.399,178.203 310.5,181.5C 310.5,181.833 310.5,182.167 310.5,182.5C 311.461,195.024 309.461,207.024 304.5,218.5C 302.867,223.122 299.867,226.455 295.5,228.5C 288.045,232.534 280.045,235.034 271.5,236C 254.17,236.5 236.837,236.667 219.5,236.5C 219.5,207.167 219.5,177.833 219.5,148.5C 237.523,148.234 255.523,148.734 273.5,150C 280.074,150.582 286.407,152.082 292.5,154.5 Z"/></g>
<g><path style="opacity:0.851" fill="#92d8f6" d="M 28.5,134.5 C 26.6226,139.925 24.456,145.259 22,150.5C 20.9741,153.239 19.4741,155.572 17.5,157.5C 19.0431,152.743 20.8765,148.076 23,143.5C 24.3571,140.102 26.1904,137.102 28.5,134.5 Z"/></g>
<g><path style="opacity:0.839" fill="#95d9f6" d="M 475.5,148.5 C 477.065,150.509 478.065,152.843 478.5,155.5C 476.166,153.824 475.166,151.491 475.5,148.5 Z"/></g>
<g><path style="opacity:0.878" fill="#9adbf7" d="M 478.5,155.5 C 483.003,164.672 486.336,174.339 488.5,184.5C 484.787,175.028 481.453,165.362 478.5,155.5 Z"/></g>
<g><path style="opacity:0.569" fill="#9bdff0" d="M 346.5,126.5 C 347.496,126.414 348.329,126.748 349,127.5C 359.734,143.872 364.9,161.872 364.5,181.5C 363.314,161.61 357.314,143.276 346.5,126.5 Z"/></g>
<g><path style="opacity:0.682" fill="#9eddf7" d="M 17.5,157.5 C 15.4111,165.767 12.7444,173.767 9.5,181.5C 11.1937,173.085 13.8604,165.085 17.5,157.5 Z"/></g>
<g><path style="opacity:0.557" fill="#8cdff8" d="M 306.5,170.5 C 308.642,173.8 309.975,177.467 310.5,181.5C 308.399,178.203 307.065,174.537 306.5,170.5 Z"/></g>
<g><path style="opacity:0.595" fill="#8ee0f8" d="M 310.5,182.5 C 312.549,193.698 311.383,204.698 307,215.5C 306.623,216.942 305.79,217.942 304.5,218.5C 309.461,207.024 311.461,195.024 310.5,182.5 Z"/></g>
<g><path style="opacity:0.561" fill="#97e0f0" d="M 364.5,204.5 C 364.358,223.767 358.692,241.1 347.5,256.5C 351.852,248.458 355.686,240.125 359,231.5C 361.497,222.49 363.33,213.49 364.5,204.5 Z"/></g>
<g><path style="opacity:0.498" fill="#a8dff8" d="M 2.5,218.5 C 2.47295,224.051 1.80629,229.384 0.5,234.5C 0.376027,228.931 1.04269,223.598 2.5,218.5 Z"/></g>
<g><path style="opacity:0.561" fill="#90ddee" d="M 347.5,256.5 C 347.573,258.027 346.906,259.027 345.5,259.5C 345.427,257.973 346.094,256.973 347.5,256.5 Z"/></g>
<g><path style="opacity:0.706" fill="#7ad4f0" d="M 342.5,263.5 C 340.5,267.5 337.5,270.5 333.5,272.5C 336.167,269.167 339.167,266.167 342.5,263.5 Z"/></g>
<g><path style="opacity:0.525" fill="#9ee0f8" d="M 325.5,278.5 C 324.713,280.104 323.38,280.771 321.5,280.5C 322.514,279.326 323.847,278.66 325.5,278.5 Z"/></g>
<g><path style="opacity:0.556" fill="#81dcf7" d="M 219.5,290.5 C 220.161,330.514 219.494,370.181 217.5,409.5C 218.161,369.736 218.828,330.069 219.5,290.5 Z"/></g>
<g><path style="opacity:0.396" fill="#a6e0f8" d="M 489.5,308.5 C 489.575,313.192 488.575,317.526 486.5,321.5C 486.882,316.908 487.882,312.575 489.5,308.5 Z"/></g>
<g><path style="opacity:0.682" fill="#a1ddf7" d="M 10.5,322.5 C 11.4972,322.47 12.1639,322.97 12.5,324C 16.7699,336.696 21.4365,349.196 26.5,361.5C 19.8254,349.137 14.492,336.137 10.5,322.5 Z"/></g>
<g><path style="opacity:0.698" fill="#9cdbf7" d="M 485.5,324.5 C 483.798,332.279 481.132,339.613 477.5,346.5C 479.351,339.444 481.518,332.444 484,325.5C 484.383,324.944 484.883,324.611 485.5,324.5 Z"/></g>
<g><path style="opacity:0.435" fill="#b3e4f9" d="M 476.5,348.5 C 475.736,351.018 474.736,353.351 473.5,355.5C 473.166,352.509 474.166,350.176 476.5,348.5 Z"/></g>
<g><path style="opacity:0.243" fill="#cbedfb" d="M 472.5,357.5 C 472.34,359.153 471.674,360.486 470.5,361.5C 470.229,359.62 470.896,358.287 472.5,357.5 Z"/></g>
<g><path style="opacity:0.204" fill="#c3eafa" d="M 26.5,361.5 C 27.9063,361.973 28.573,362.973 28.5,364.5C 27.0937,364.027 26.427,363.027 26.5,361.5 Z"/></g>
<g><path style="opacity:0.212" fill="#c3eafa" d="M 470.5,361.5 C 470.573,363.027 469.906,364.027 468.5,364.5C 468.427,362.973 469.094,361.973 470.5,361.5 Z"/></g>
<g><path style="opacity:0.333" fill="#bce7f9" d="M 28.5,364.5 C 30.1042,365.287 30.7709,366.62 30.5,368.5C 29.3263,367.486 28.6596,366.153 28.5,364.5 Z"/></g>
<g><path style="opacity:0.008" fill="#d0effb" d="M 444.5,402.5 C 444.573,404.027 443.906,405.027 442.5,405.5C 442.427,403.973 443.094,402.973 444.5,402.5 Z"/></g>
<g><path style="opacity:0.678" fill="#a2dcf7" d="M 53.5,403.5 C 56.1068,404.712 57.7735,406.712 58.5,409.5C 56.086,408.089 54.4194,406.089 53.5,403.5 Z"/></g>
<g><path style="opacity:0.565" fill="#b3e4f8" d="M 61.5,413.5 C 63.5,413.5 64.5,414.5 64.5,416.5C 63.1667,415.833 62.1667,414.833 61.5,413.5 Z"/></g>
<g><path style="opacity:0.055" fill="#c7ebfa" d="M 435.5,412.5 C 435.573,414.027 434.906,415.027 433.5,415.5C 433.427,413.973 434.094,412.973 435.5,412.5 Z"/></g>
<g><path style="opacity:0.957" fill="#9cd9f6" d="M 70.5,422.5 C 72.4516,423.785 74.1182,425.451 75.5,427.5C 72.856,426.856 71.1894,425.189 70.5,422.5 Z"/></g>
<g><path style="opacity:0.843" fill="#9fdcf7" d="M 75.5,427.5 C 79.7706,430.101 83.4372,433.434 86.5,437.5C 82.2294,434.899 78.5628,431.566 75.5,427.5 Z"/></g>
<g><path style="opacity:0.831" fill="#ace1f8" d="M 86.5,437.5 C 90.1002,439.43 93.1002,442.097 95.5,445.5C 91.8998,443.57 88.8998,440.903 86.5,437.5 Z"/></g>
<g><path style="opacity:0.09" fill="#caecfb" d="M 405.5,442.5 C 404.738,444.262 403.404,445.262 401.5,445.5C 402.262,443.738 403.596,442.738 405.5,442.5 Z"/></g>
<g><path style="opacity:0.412" fill="#ace2f8" d="M 95.5,445.5 C 97.0269,445.427 98.0269,446.094 98.5,447.5C 96.9731,447.573 95.9731,446.906 95.5,445.5 Z"/></g>
<g><path style="opacity:0.565" fill="#bae7f9" d="M 98.5,447.5 C 100.027,447.427 101.027,448.094 101.5,449.5C 99.9731,449.573 98.9731,448.906 98.5,447.5 Z"/></g>
<g><path style="opacity:0.486" fill="#a5dff7" d="M 101.5,449.5 C 103.027,449.427 104.027,450.094 104.5,451.5C 102.973,451.573 101.973,450.906 101.5,449.5 Z"/></g>
<g><path style="opacity:0.443" fill="#aee2f8" d="M 111.5,456.5 C 113.027,456.427 114.027,457.094 114.5,458.5C 112.973,458.573 111.973,457.906 111.5,456.5 Z"/></g>
<g><path style="opacity:0.267" fill="#c6ebfa" d="M 133.5,469.5 C 135.027,469.427 136.027,470.094 136.5,471.5C 134.973,471.573 133.973,470.906 133.5,469.5 Z"/></g>
<g><path style="opacity:0.282" fill="#c3eafa" d="M 363.5,469.5 C 362.341,471.25 360.674,472.25 358.5,472.5C 359.659,470.75 361.326,469.75 363.5,469.5 Z"/></g>
<g><path style="opacity:0.839" fill="#a3def7" d="M 136.5,471.5 C 141.506,472.171 145.839,474.171 149.5,477.5C 144.738,476.284 140.405,474.284 136.5,471.5 Z"/></g>
<g><path style="opacity:0.459" fill="#b3e4f9" d="M 354.5,474.5 C 352.351,475.736 350.018,476.736 347.5,477.5C 349.176,475.166 351.509,474.166 354.5,474.5 Z"/></g>
<g><path style="opacity:0.8" fill="#aae1f8" d="M 149.5,477.5 C 156.858,479.395 163.858,482.061 170.5,485.5C 162.985,483.998 155.985,481.331 149.5,477.5 Z"/></g>
<g><path style="opacity:0.208" fill="#c0e9fa" d="M 347.5,477.5 C 346.22,478.931 344.553,479.598 342.5,479.5C 343.635,477.787 345.302,477.12 347.5,477.5 Z"/></g>
<g><path style="opacity:0.173" fill="#bae7f9" d="M 340.5,480.5 C 339.07,481.537 337.403,482.204 335.5,482.5C 336.635,480.787 338.302,480.12 340.5,480.5 Z"/></g>
<g><path style="opacity:0.349" fill="#b8e6f9" d="M 335.5,482.5 C 333.786,483.738 331.786,484.405 329.5,484.5C 331.102,482.926 333.102,482.259 335.5,482.5 Z"/></g>
<g><path style="opacity:0.702" fill="#a3dff7" d="M 170.5,485.5 C 175.165,486.057 179.498,487.39 183.5,489.5C 178.835,488.943 174.502,487.61 170.5,485.5 Z"/></g>
<g><path style="opacity:0.102" fill="#c2eafa" d="M 326.5,485.5 C 325.07,486.537 323.403,487.204 321.5,487.5C 322.635,485.787 324.302,485.12 326.5,485.5 Z"/></g>
<g><path style="opacity:0.263" fill="#b3e4f9" d="M 321.5,487.5 C 318.456,489.011 315.122,489.678 311.5,489.5C 314.589,488.215 317.922,487.549 321.5,487.5 Z"/></g>
<g><path style="opacity:0.576" fill="#a3ddf7" d="M 186.5,489.5 C 189.152,489.41 191.485,490.076 193.5,491.5C 190.848,491.59 188.515,490.924 186.5,489.5 Z"/></g>
</svg>
