<?xml version="1.0" encoding="UTF-8"?>
<!DOCTYPE svg PUBLIC "-//W3C//DTD SVG 1.1//EN" "http://www.w3.org/Graphics/SVG/1.1/DTD/svg11.dtd">
<svg xmlns="http://www.w3.org/2000/svg" version="1.1" width="300px" height="300px" style="shape-rendering:geometricPrecision; text-rendering:geometricPrecision; image-rendering:optimizeQuality; fill-rule:evenodd; clip-rule:evenodd" xmlns:xlink="http://www.w3.org/1999/xlink">
<g><path style="opacity:1" fill="#f69f14" d="M 222.5,60.5 C 222.427,62.0269 223.094,63.0269 224.5,63.5C 239.815,80.818 248.649,101.151 251,124.5C 253.709,149.639 248.042,172.639 234,193.5C 231.207,178.236 224.04,165.569 212.5,155.5C 212.027,154.094 211.027,153.427 209.5,153.5C 202.283,150.208 194.95,147.542 187.5,145.5C 195.5,144.833 203.5,144.167 211.5,143.5C 212.791,127.905 209.791,113.238 202.5,99.5C 202.715,97.8212 202.048,96.8212 200.5,96.5C 197.167,92.1667 193.833,87.8333 190.5,83.5C 190.027,82.0937 189.027,81.427 187.5,81.5C 165.48,63.3279 140.813,58.8279 113.5,68C 82.1674,82.8122 67.3341,107.646 69,142.5C 70.3197,157.124 75.4864,170.124 84.5,181.5C 84.427,183.027 85.0937,184.027 86.5,184.5C 91.8333,188.833 97.1667,193.167 102.5,197.5C 102.821,199.048 103.821,199.715 105.5,199.5C 117.493,205.999 129.826,208.499 142.5,207C 141.354,199.914 141.188,192.747 142,185.5C 142.414,185.043 142.914,184.709 143.5,184.5C 144.952,185.94 145.952,187.606 146.5,189.5C 146.427,191.027 147.094,192.027 148.5,192.5C 156.015,202.513 165.015,211.013 175.5,218C 189.052,223.739 203.052,228.073 217.5,231C 238.483,238.243 255.65,250.743 269,268.5C 269.494,270.134 269.66,271.801 269.5,273.5C 266.369,274.092 264.036,273.092 262.5,270.5C 262.027,269.094 261.027,268.427 259.5,268.5C 257.091,267.299 255.091,265.633 253.5,263.5C 253.027,262.094 252.027,261.427 250.5,261.5C 250.027,260.094 249.027,259.427 247.5,259.5C 247.027,258.094 246.027,257.427 244.5,257.5C 229.963,249.212 214.297,244.545 197.5,243.5C 190.833,242.167 184.167,242.167 177.5,243.5C 136.595,253.184 99.5947,245.351 66.5,220C 34.1954,189.614 22.8621,152.781 32.5,109.5C 33.9238,107.485 34.5905,105.152 34.5,102.5C 44.2994,70.8591 64.2994,48.0257 94.5,34C 98.0207,32.3262 101.687,31.1596 105.5,30.5C 108.152,30.5905 110.485,29.9238 112.5,28.5C 150.813,19.828 185.146,27.9946 215.5,53C 218.039,55.3697 220.372,57.8697 222.5,60.5 Z"/></g>
<g><path style="opacity:0.898" fill="#fdc879" d="M 112.5,28.5 C 110.485,29.9238 108.152,30.5905 105.5,30.5C 107.515,29.0762 109.848,28.4095 112.5,28.5 Z"/></g>
<g><path style="opacity:0.651" fill="#ffdba5" d="M 222.5,60.5 C 223.906,60.9731 224.573,61.9731 224.5,63.5C 223.094,63.0269 222.427,62.0269 222.5,60.5 Z"/></g>
<g><path style="opacity:0.663" fill="#ffdaa1" d="M 187.5,81.5 C 189.027,81.427 190.027,82.0937 190.5,83.5C 188.973,83.573 187.973,82.9063 187.5,81.5 Z"/></g>
<g><path style="opacity:0.953" fill="#ffcf8e" d="M 200.5,96.5 C 202.048,96.8212 202.715,97.8212 202.5,99.5C 201.599,98.7095 200.932,97.7095 200.5,96.5 Z"/></g>
<g><path style="opacity:0.969" fill="#fcc36e" d="M 34.5,102.5 C 34.5905,105.152 33.9238,107.485 32.5,109.5C 32.4095,106.848 33.0762,104.515 34.5,102.5 Z"/></g>
<g><path style="opacity:0.856" fill="#fbbf5f" d="M 211.5,143.5 C 203.5,144.167 195.5,144.833 187.5,145.5C 186.957,145.44 186.624,145.107 186.5,144.5C 190.847,143.778 195.18,143.112 199.5,142.5C 203.429,143.433 207.429,143.766 211.5,143.5 Z"/></g>
<g><path style="opacity:0.51" fill="#fed596" d="M 209.5,153.5 C 211.027,153.427 212.027,154.094 212.5,155.5C 210.973,155.573 209.973,154.906 209.5,153.5 Z"/></g>
<g><path style="opacity:1" fill="#f9aa39" d="M 216.5,180.5 C 224.218,181.406 227.885,185.906 227.5,194C 227.734,197.767 226.068,199.433 222.5,199C 216.019,194.222 214.019,188.055 216.5,180.5 Z"/></g>
<g><path style="opacity:0.655" fill="#ffdaa3" d="M 84.5,181.5 C 85.9063,181.973 86.573,182.973 86.5,184.5C 85.0937,184.027 84.427,183.027 84.5,181.5 Z"/></g>
<g><path style="opacity:0.478" fill="#fed79b" d="M 146.5,189.5 C 147.906,189.973 148.573,190.973 148.5,192.5C 147.094,192.027 146.427,191.027 146.5,189.5 Z"/></g>
<g><path style="opacity:0.918" fill="#ffd192" d="M 102.5,197.5 C 103.71,197.932 104.71,198.599 105.5,199.5C 103.821,199.715 102.821,199.048 102.5,197.5 Z"/></g>
<g><path style="opacity:1" fill="#f8a62e" d="M 193.5,198.5 C 202.232,198.406 207.565,202.572 209.5,211C 209.123,216.126 206.29,218.626 201,218.5C 193.491,217.657 189.324,213.491 188.5,206C 188.818,202.53 190.484,200.03 193.5,198.5 Z"/></g>
<g><path style="opacity:0.416" fill="#fbd28d" d="M 177.5,243.5 C 184.167,242.167 190.833,242.167 197.5,243.5C 190.623,243.597 183.956,243.597 177.5,243.5 Z"/></g>
<g><path style="opacity:0.431" fill="#fed89e" d="M 244.5,257.5 C 246.027,257.427 247.027,258.094 247.5,259.5C 245.973,259.573 244.973,258.906 244.5,257.5 Z"/></g>
<g><path style="opacity:0.447" fill="#ffd9a0" d="M 247.5,259.5 C 249.027,259.427 250.027,260.094 250.5,261.5C 248.973,261.573 247.973,260.906 247.5,259.5 Z"/></g>
<g><path style="opacity:0.561" fill="#fed28f" d="M 250.5,261.5 C 252.027,261.427 253.027,262.094 253.5,263.5C 251.973,263.573 250.973,262.906 250.5,261.5 Z"/></g>
<g><path style="opacity:0.757" fill="#ffd28f" d="M 259.5,268.5 C 261.027,268.427 262.027,269.094 262.5,270.5C 260.973,270.573 259.973,269.906 259.5,268.5 Z"/></g>
</svg>
