<?xml version="1.0" encoding="UTF-8"?>
<!DOCTYPE svg PUBLIC "-//W3C//DTD SVG 1.1//EN" "http://www.w3.org/Graphics/SVG/1.1/DTD/svg11.dtd">
<svg xmlns="http://www.w3.org/2000/svg" version="1.1" width="512px" height="512px" style="shape-rendering:geometricPrecision; text-rendering:geometricPrecision; image-rendering:optimizeQuality; fill-rule:evenodd; clip-rule:evenodd" xmlns:xlink="http://www.w3.org/1999/xlink">
<g><path style="opacity:0.966" fill="#1e81ce" d="M 233.5,15.5 C 326.676,10.6799 400.51,45.6799 455,120.5C 500.8,193.045 508.133,269.379 477,349.5C 441.926,426.813 382.76,474.313 299.5,492C 208.454,505.657 132.287,478.491 71,410.5C 18.3115,343.73 2.97817,269.063 25,186.5C 51.5,105.333 105.333,51.5 186.5,25C 202.057,20.5889 217.723,17.4223 233.5,15.5 Z M 254.5,31.5 C 340.223,34.9233 405.39,72.9233 450,145.5C 480.412,201.541 486.745,260.208 469,321.5C 440.168,404.332 383.001,455.499 297.5,475C 206.386,488.634 132.219,459.467 75,387.5C 30.3273,322.455 20.6607,252.455 46,177.5C 76.3077,103.093 130.474,56.2595 208.5,37C 223.85,33.9971 239.183,32.1638 254.5,31.5 Z M 187.5,167.5 C 241.501,167.333 295.501,167.5 349.5,168C 340.457,178.041 331.79,188.374 323.5,199C 269.5,199.667 215.5,199.667 161.5,199C 170.756,188.918 179.423,178.418 187.5,167.5 Z M 161.5,240.5 C 215.332,239.335 269.332,239.168 323.5,240C 331.79,250.626 340.457,260.959 349.5,271C 295.5,271.667 241.5,271.667 187.5,271C 179.343,260.348 170.677,250.181 161.5,240.5 Z M 187.5,311.5 C 241.501,311.333 295.501,311.5 349.5,312C 340.457,322.041 331.79,332.374 323.5,343C 269.5,343.667 215.5,343.667 161.5,343C 170.756,332.918 179.423,322.418 187.5,311.5 Z"/></g>
<g><path style="opacity:0.982" fill="#1f81ce" d="M 235.5,47.5 C 307.369,43.0408 367.202,67.3742 415,120.5C 466.631,186.973 477.298,259.639 447,338.5C 412.593,411.14 355.426,452.64 275.5,463C 203.64,467.967 143.806,443.801 96,390.5C 44.3135,324.033 33.6469,251.366 64,172.5C 98.4829,99.8681 155.65,58.2014 235.5,47.5 Z M 187.5,167.5 C 179.423,178.418 170.756,188.918 161.5,199C 215.5,199.667 269.5,199.667 323.5,199C 331.79,188.374 340.457,178.041 349.5,168C 295.501,167.5 241.501,167.333 187.5,167.5 Z M 161.5,240.5 C 170.677,250.181 179.343,260.348 187.5,271C 241.5,271.667 295.5,271.667 349.5,271C 340.457,260.959 331.79,250.626 323.5,240C 269.332,239.168 215.332,239.335 161.5,240.5 Z M 187.5,311.5 C 179.423,322.418 170.756,332.918 161.5,343C 215.5,343.667 269.5,343.667 323.5,343C 331.79,332.374 340.457,322.041 349.5,312C 295.501,311.5 241.501,311.333 187.5,311.5 Z"/></g>
<g><path style="opacity:1" fill="#9ac8fe" d="M 237.5,63.5 C 318.741,60.3611 380.575,93.0277 423,161.5C 456.837,227.224 455.504,292.224 419,356.5C 373.655,423.249 310.488,453.082 229.5,446C 145.872,430.704 92.3719,382.204 69,300.5C 53.3622,223.413 74.8622,158.913 133.5,107C 164.139,82.8435 198.805,68.3435 237.5,63.5 Z M 187.5,167.5 C 179.423,178.418 170.756,188.918 161.5,199C 215.5,199.667 269.5,199.667 323.5,199C 331.79,188.374 340.457,178.041 349.5,168C 295.501,167.5 241.501,167.333 187.5,167.5 Z M 161.5,240.5 C 170.677,250.181 179.343,260.348 187.5,271C 241.5,271.667 295.5,271.667 349.5,271C 340.457,260.959 331.79,250.626 323.5,240C 269.332,239.168 215.332,239.335 161.5,240.5 Z M 187.5,311.5 C 179.423,322.418 170.756,332.918 161.5,343C 215.5,343.667 269.5,343.667 323.5,343C 331.79,332.374 340.457,322.041 349.5,312C 295.501,311.5 241.501,311.333 187.5,311.5 Z"/></g>
<g><path style="opacity:0.996" fill="#1e81ce" d="M 180.5,151.5 C 243.501,151.333 306.501,151.5 369.5,152C 375.448,154.433 376.948,158.6 374,164.5C 361,180.167 348,195.833 335,211.5C 333.681,213.487 331.848,214.654 329.5,215C 266.5,215.667 203.5,215.667 140.5,215C 135.465,211.987 134.298,207.82 137,202.5C 151.394,185.283 165.894,168.283 180.5,151.5 Z M 187.5,167.5 C 179.423,178.418 170.756,188.918 161.5,199C 215.5,199.667 269.5,199.667 323.5,199C 331.79,188.374 340.457,178.041 349.5,168C 295.501,167.5 241.501,167.333 187.5,167.5 Z"/></g>
<g><path style="opacity:0.998" fill="#1e81ce" d="M 140.5,223.5 C 203.501,223.333 266.501,223.5 329.5,224C 331.848,224.346 333.681,225.513 335,227.5C 348,243.167 361,258.833 374,274.5C 376.948,280.4 375.448,284.567 369.5,287C 306.5,287.667 243.5,287.667 180.5,287C 165.684,270.512 151.184,253.679 137,236.5C 134.348,231.039 135.514,226.706 140.5,223.5 Z M 161.5,240.5 C 170.677,250.181 179.343,260.348 187.5,271C 241.5,271.667 295.5,271.667 349.5,271C 340.457,260.959 331.79,250.626 323.5,240C 269.332,239.168 215.332,239.335 161.5,240.5 Z"/></g>
<g><path style="opacity:0.996" fill="#1e81ce" d="M 180.5,295.5 C 243.501,295.333 306.501,295.5 369.5,296C 375.448,298.433 376.948,302.6 374,308.5C 361,324.167 348,339.833 335,355.5C 333.681,357.487 331.848,358.654 329.5,359C 266.5,359.667 203.5,359.667 140.5,359C 135.465,355.987 134.298,351.82 137,346.5C 151.394,329.283 165.894,312.283 180.5,295.5 Z M 187.5,311.5 C 179.423,322.418 170.756,332.918 161.5,343C 215.5,343.667 269.5,343.667 323.5,343C 331.79,332.374 340.457,322.041 349.5,312C 295.501,311.5 241.501,311.333 187.5,311.5 Z"/></g>
</svg>
