<?xml version="1.0" encoding="UTF-8"?>
<!DOCTYPE svg PUBLIC "-//W3C//DTD SVG 1.1//EN" "http://www.w3.org/Graphics/SVG/1.1/DTD/svg11.dtd">
<svg xmlns="http://www.w3.org/2000/svg" version="1.1" width="512px" height="512px" style="shape-rendering:geometricPrecision; text-rendering:geometricPrecision; image-rendering:optimizeQuality; fill-rule:evenodd; clip-rule:evenodd" xmlns:xlink="http://www.w3.org/1999/xlink">
<g><path style="opacity:0.988" fill="#000000" d="M 237.5,20.5 C 333.118,17.3848 406.618,55.7181 458,135.5C 497.281,206.609 500.948,279.609 469,354.5C 440.293,416.867 393.127,458.367 327.5,479C 260.301,498.037 195.968,491.037 134.5,458C 75.8622,422.632 39.6956,371.132 26,303.5C 9.0778,204.899 39.9111,125.065 118.5,64C 154.387,39.094 194.053,24.594 237.5,20.5 Z M 124.5,133.5 C 144.503,133.333 164.503,133.5 184.5,134C 200.5,149.333 216.5,164.667 232.5,180C 249.249,189.16 265.582,188.494 281.5,178C 296.195,162.971 311.195,148.304 326.5,134C 346.5,133.333 366.5,133.333 386.5,134C 393.787,137.868 395.287,143.368 391,150.5C 363.805,178.028 336.305,205.195 308.5,232C 277.402,252.932 245.068,254.932 211.5,238C 206.322,234.578 201.322,230.911 196.5,227C 171,201.5 145.5,176 120,150.5C 115.767,143.181 117.267,137.515 124.5,133.5 Z M 246.5,261.5 C 269.355,259.878 290.021,265.711 308.5,279C 336.305,305.805 363.805,332.972 391,360.5C 395.282,367.679 393.782,373.179 386.5,377C 366.5,377.667 346.5,377.667 326.5,377C 311.195,362.696 296.195,348.029 281.5,333C 264.167,321.667 246.833,321.667 229.5,333C 214.805,348.029 199.805,362.696 184.5,377C 164.5,377.667 144.5,377.667 124.5,377C 117.213,373.132 115.713,367.632 120,360.5C 145.5,335 171,309.5 196.5,284C 210.915,271.367 227.581,263.867 246.5,261.5 Z"/></g>
<g><path style="opacity:0.929" fill="#000000" d="M 152.5,154.5 C 160.656,153.343 168.99,153.177 177.5,154C 191.862,168.696 206.529,183.029 221.5,197C 244.167,209.667 266.833,209.667 289.5,197C 304.471,183.029 319.138,168.696 333.5,154C 341.833,153.333 350.167,153.333 358.5,154C 337.833,174.667 317.167,195.333 296.5,216C 269.167,234 241.833,234 214.5,216C 193.965,195.298 173.299,174.798 152.5,154.5 Z"/></g>
<g><path style="opacity:0.929" fill="#000000" d="M 248.5,281.5 C 264.776,280.485 279.776,284.319 293.5,293C 315.472,313.971 337.139,335.305 358.5,357C 350.167,357.667 341.833,357.667 333.5,357C 320.167,343.667 306.833,330.333 293.5,317C 268.178,299.01 242.845,299.01 217.5,317C 204.167,330.333 190.833,343.667 177.5,357C 169.167,357.667 160.833,357.667 152.5,357C 172.833,336.667 193.167,316.333 213.5,296C 223.99,288.12 235.657,283.287 248.5,281.5 Z"/></g>
</svg>
