<?xml version="1.0" encoding="UTF-8"?>
<!DOCTYPE svg PUBLIC "-//W3C//DTD SVG 1.1//EN" "http://www.w3.org/Graphics/SVG/1.1/DTD/svg11.dtd">
<svg xmlns="http://www.w3.org/2000/svg" version="1.1" width="400px" height="400px" style="shape-rendering:geometricPrecision; text-rendering:geometricPrecision; image-rendering:optimizeQuality; fill-rule:evenodd; clip-rule:evenodd" xmlns:xlink="http://www.w3.org/1999/xlink">
<g><path style="opacity:0.978" fill="#8a3efc" d="M 229.5,79.5 C 275.084,75.409 312.584,90.409 342,124.5C 374.955,171.3 376.788,219.3 347.5,268.5C 310.298,316.732 262.298,332.232 203.5,315C 168.989,301.156 144.822,276.989 131,242.5C 128.694,234.637 127.027,226.637 126,218.5C 125.5,242.831 125.333,267.164 125.5,291.5C 110.5,291.5 95.5,291.5 80.5,291.5C 64.4862,239.458 48.1528,187.458 31.5,135.5C 29.3579,128.599 27.6912,121.599 26.5,114.5C 59.5,114.5 92.5,114.5 125.5,114.5C 125.333,137.169 125.5,159.836 126,182.5C 132.837,140.029 155.337,109.195 193.5,90C 205.041,84.6182 217.041,81.1182 229.5,79.5 Z M 239.5,156.5 C 264.887,155.764 281.387,167.431 289,191.5C 291.212,204.315 288.546,215.981 281,226.5C 258.602,249.585 235.602,250.252 212,228.5C 210.463,224.588 208.296,221.088 205.5,218C 197.448,191.128 205.782,171.461 230.5,159C 233.678,158.34 236.678,157.507 239.5,156.5 Z"/></g>
</svg>
